<svg width="112" height="671" viewBox="0 0 112 671" fill="none" xmlns="http://www.w3.org/2000/svg">
<path d="M36.9214 202.209L56.0268 221.302L75.1204 202.209L70.7497 197.838L56.0268 212.573L41.2921 197.838L36.9214 202.209Z" fill="#444444"/>
<path d="M72.8332 202.208L56.0494 218.992L39.2655 202.208L41.3147 200.159L56.0494 214.882L70.7723 200.159L72.8332 202.208ZM56.0494 223.624L77.4526 202.208L70.7723 195.528L56.0257 210.275L41.291 195.552L34.6106 202.232L56.0494 223.624Z" fill="#444444"/>
<path d="M70.3246 195.963L72.6362 198.275L71.8992 199.012L69.5876 196.7L70.3246 195.963Z" fill="#444444"/>
<path d="M41.7136 195.958L42.4507 196.695L40.1391 199.007L39.402 198.27L41.7136 195.958Z" fill="#444444"/>
<path d="M40.1423 136.393L42.4556 138.703L41.7358 139.424L39.4226 137.114L40.1423 136.393Z" fill="#444444"/>
<path d="M71.9169 136.38L72.6541 137.1L70.3696 139.439L69.6325 138.719L71.9169 136.38Z" fill="#444444"/>
<path d="M64.7686 167.8L55.9325 158.964L47.0964 167.8L55.9325 176.648L64.7686 167.8ZM56.0746 152.307L71.5437 167.765L56.0746 183.234L40.6174 167.765L56.0746 152.307Z" fill="#444444"/>
<path d="M26.9567 181.351L27.71 182.088L25.4231 184.424L24.6698 183.687L26.9567 181.351Z" fill="#444444"/>
<path d="M25.3916 151.21L27.7012 153.524L26.9635 154.26L24.6539 151.946L25.3916 151.21Z" fill="#444444"/>
<path d="M86.5674 151.117L87.304 151.855L84.9907 154.165L84.2542 153.427L86.5674 151.117Z" fill="#444444"/>
<path d="M85.0006 181.291L87.3123 183.603L86.5752 184.34L84.2636 182.028L85.0006 181.291Z" fill="#444444"/>
<path d="M36.9214 133.226L41.2803 137.596L56.0268 122.85L70.7497 137.596L75.1204 133.226L56.0268 114.132L36.9214 133.226Z" fill="#444444"/>
<path d="M72.834 133.285L70.773 135.346L56.0502 120.599L41.3036 135.334L39.2663 133.285L56.0502 116.501L72.834 133.285ZM41.3036 139.977L56.0502 125.231L70.7493 139.918L77.4297 133.285L56.0264 111.87L34.6113 133.285L41.3036 139.977Z" fill="#444444"/>
<path d="M68.4421 137.596L56.0289 150.009L43.5921 137.596L56.0289 125.171L68.4421 137.596ZM56.0289 154.605L73.0615 137.561L56.0289 120.504L38.9609 137.561L56.0289 154.605Z" fill="#444444"/>
<path d="M2.31099 167.859L21.4045 186.952L25.7752 182.582L11.0641 167.859L25.7988 153.124L21.4045 148.742L2.31099 167.859Z" fill="#444444"/>
<path d="M23.4643 182.582L21.4034 184.643L4.61951 167.86L21.4034 151.052L23.4762 153.125L8.75335 167.86L23.4643 182.582ZM21.4034 189.275L28.0956 182.582L13.3727 167.86L28.1074 153.125L21.4034 146.433L0.00015159 167.86L21.4034 189.275Z" fill="#444444"/>
<path d="M38.1901 167.859L25.7769 180.272L13.3756 167.859L25.8006 155.446L38.1901 167.859ZM25.7769 184.903L42.8213 167.859L25.8006 150.814L8.75621 167.859L25.7769 184.903Z" fill="#444444"/>
<path d="M100.895 167.681L86.1718 182.404L90.5543 186.775L109.66 167.681L90.5543 148.564L86.1718 152.947L100.895 167.681Z" fill="#444444"/>
<path d="M107.339 167.634L90.6023 184.465L88.5295 182.404L103.217 167.634L88.4821 152.899L90.6023 150.874L107.339 167.634ZM90.6023 189.085L111.923 167.634L90.6023 146.243L83.8983 152.947L98.5856 167.634L83.8508 182.357L90.6023 189.085Z" fill="#444444"/>
<path d="M98.5828 167.634L86.1697 180.047L73.7683 167.634L86.1697 155.221L98.5828 167.634ZM86.1697 184.679L103.214 167.634L86.1697 150.59L69.1371 167.634L86.1697 184.679Z" fill="#444444"/>
<path d="M68.44 197.838L56.0269 210.275L43.6137 197.862L56.0269 185.401L68.44 197.838ZM56.0269 214.882L73.0713 197.838L55.8492 180.663L54.7476 182.12L38.9824 197.885L56.0269 214.882Z" fill="#444444"/>
<path d="M30.0161 141.031L28.7724 142.275L43.1518 158.798L46.6934 155.257L30.0161 141.031Z" fill="#444444"/>
<path d="M29.0329 193.562L30.2647 194.806L46.7998 180.426L43.2583 176.885L29.0329 193.562Z" fill="#444444"/>
<path d="M83.0322 141.848L81.8004 140.604L65.2653 154.984L68.8187 158.525L83.0322 141.848Z" fill="#444444"/>
<path d="M81.7512 194.865L82.9949 193.633L68.6155 177.098L65.0739 180.639L81.7512 194.865Z" fill="#444444"/>
<path d="M84.5143 134.007H89.6904V139.183H84.5143V134.007Z" fill="#444444"/>
<path d="M84.3708 196.381H89.5469V201.557H84.3708V196.381Z" fill="#444444"/>
<path d="M22.506 196.381H27.6821V201.557H22.506V196.381Z" fill="#444444"/>
<path d="M22.3766 134.517H27.5527V139.693H22.3766V134.517Z" fill="#444444"/>
<path d="M36.9214 314.008L56.0268 333.102L75.1204 314.008L70.7497 309.638L56.0268 324.372L41.2921 309.638L36.9214 314.008Z" fill="#444444"/>
<path d="M72.8332 314.008L56.0494 330.792L39.2655 314.008L41.3147 311.959L56.0494 326.682L70.7723 311.959L72.8332 314.008ZM56.0494 335.423L77.4526 314.008L70.7723 307.328L56.0257 322.074L41.291 307.351L34.6106 314.032L56.0494 335.423Z" fill="#444444"/>
<path d="M70.3246 307.763L72.6362 310.074L71.8992 310.812L69.5876 308.5L70.3246 307.763Z" fill="#444444"/>
<path d="M41.7136 307.758L42.4507 308.495L40.1391 310.806L39.402 310.069L41.7136 307.758Z" fill="#444444"/>
<path d="M40.1423 248.193L42.4556 250.503L41.7358 251.224L39.4226 248.914L40.1423 248.193Z" fill="#444444"/>
<path d="M71.9169 248.18L72.6541 248.9L70.3696 251.238L69.6325 250.518L71.9169 248.18Z" fill="#444444"/>
<path d="M64.7686 279.6L55.9325 270.764L47.0964 279.6L55.9325 288.448L64.7686 279.6ZM56.0746 264.107L71.5437 279.564L56.0746 295.034L40.6174 279.564L56.0746 264.107Z" fill="#444444"/>
<path d="M26.9567 293.151L27.71 293.888L25.4231 296.224L24.6698 295.487L26.9567 293.151Z" fill="#444444"/>
<path d="M25.3916 263.009L27.7012 265.323L26.9635 266.059L24.6539 263.746L25.3916 263.009Z" fill="#444444"/>
<path d="M86.5674 262.917L87.304 263.655L84.9907 265.965L84.2542 265.227L86.5674 262.917Z" fill="#444444"/>
<path d="M85.0006 293.09L87.3123 295.402L86.5752 296.139L84.2636 293.828L85.0006 293.09Z" fill="#444444"/>
<path d="M36.9214 245.025L41.2803 249.396L56.0268 234.649L70.7497 249.396L75.1204 245.025L56.0268 225.932L36.9214 245.025Z" fill="#444444"/>
<path d="M72.834 245.084L70.773 247.145L56.0502 232.399L41.3036 247.133L39.2663 245.084L56.0502 228.3L72.834 245.084ZM41.3036 251.776L56.0502 237.03L70.7493 251.717L77.4297 245.084L56.0264 223.669L34.6113 245.084L41.3036 251.776Z" fill="#444444"/>
<path d="M68.4421 249.396L56.0289 261.809L43.5921 249.396L56.0289 236.971L68.4421 249.396ZM56.0289 266.405L73.0615 249.36L56.0289 232.304L38.9609 249.36L56.0289 266.405Z" fill="#444444"/>
<path d="M2.31099 279.659L21.4045 298.752L25.7752 294.382L11.0641 279.659L25.7988 264.924L21.4045 260.542L2.31099 279.659Z" fill="#444444"/>
<path d="M23.4643 294.382L21.4034 296.443L4.61951 279.659L21.4034 262.852L23.4762 264.924L8.75335 279.659L23.4643 294.382ZM21.4034 301.074L28.0956 294.382L13.3727 279.659L28.1074 264.924L21.4034 258.232L0.00015159 279.659L21.4034 301.074Z" fill="#444444"/>
<path d="M38.1901 279.659L25.7769 292.072L13.3756 279.659L25.8006 267.246L38.1901 279.659ZM25.7769 296.703L42.8213 279.659L25.8006 262.614L8.75621 279.659L25.7769 296.703Z" fill="#444444"/>
<path d="M100.895 279.481L86.1718 294.204L90.5543 298.575L109.66 279.481L90.5543 260.364L86.1718 264.746L100.895 279.481Z" fill="#444444"/>
<path d="M107.339 279.434L90.6023 296.265L88.5295 294.204L103.217 279.434L88.4821 264.699L90.6023 262.673L107.339 279.434ZM90.6023 300.884L111.923 279.434L90.6023 258.042L83.8983 264.746L98.5856 279.434L83.8508 294.156L90.6023 300.884Z" fill="#444444"/>
<path d="M98.5828 279.434L86.1697 291.847L73.7683 279.434L86.1697 267.021L98.5828 279.434ZM86.1697 296.478L103.214 279.434L86.1697 262.389L69.1371 279.434L86.1697 296.478Z" fill="#444444"/>
<path d="M68.44 309.638L56.0269 322.074L43.6137 309.661L56.0269 297.201L68.44 309.638ZM56.0269 326.682L73.0713 309.638L55.8492 292.463L54.7476 293.92L38.9824 309.685L56.0269 326.682Z" fill="#444444"/>
<path d="M30.0161 252.831L28.7724 254.074L43.1518 270.598L46.6934 267.056L30.0161 252.831Z" fill="#444444"/>
<path d="M29.0329 305.362L30.2647 306.605L46.7998 292.226L43.2583 288.684L29.0329 305.362Z" fill="#444444"/>
<path d="M83.0322 253.648L81.8004 252.404L65.2653 266.783L68.8187 270.325L83.0322 253.648Z" fill="#444444"/>
<path d="M81.7512 306.664L82.9949 305.433L68.6155 288.897L65.0739 292.439L81.7512 306.664Z" fill="#444444"/>
<path d="M84.5143 245.807H89.6904V250.983H84.5143V245.807Z" fill="#444444"/>
<path d="M84.3708 308.181H89.5469V313.357H84.3708V308.181Z" fill="#444444"/>
<path d="M22.506 308.181H27.6821V313.357H22.506V308.181Z" fill="#444444"/>
<path d="M22.3766 246.316H27.5527V251.493H22.3766V246.316Z" fill="#444444"/>
<path d="M36.9214 426.256L56.0268 445.349L75.1204 426.256L70.7497 421.885L56.0268 436.62L41.2921 421.885L36.9214 426.256Z" fill="#444444"/>
<path d="M72.8332 426.255L56.0494 443.039L39.2655 426.255L41.3147 424.206L56.0494 438.929L70.7723 424.206L72.8332 426.255ZM56.0494 447.67L77.4526 426.255L70.7723 419.575L56.0257 434.322L41.291 419.599L34.6106 426.279L56.0494 447.67Z" fill="#444444"/>
<path d="M70.3246 420.01L72.6362 422.322L71.8992 423.059L69.5876 420.747L70.3246 420.01Z" fill="#444444"/>
<path d="M41.7136 420.005L42.4507 420.742L40.1391 423.054L39.402 422.317L41.7136 420.005Z" fill="#444444"/>
<path d="M40.1423 360.44L42.4556 362.75L41.7358 363.471L39.4226 361.161L40.1423 360.44Z" fill="#444444"/>
<path d="M71.9169 360.427L72.6541 361.147L70.3696 363.486L69.6325 362.766L71.9169 360.427Z" fill="#444444"/>
<path d="M64.7686 391.847L55.9325 383.011L47.0964 391.847L55.9325 400.695L64.7686 391.847ZM56.0746 376.354L71.5437 391.812L56.0746 407.281L40.6174 391.812L56.0746 376.354Z" fill="#444444"/>
<path d="M26.9567 405.398L27.71 406.135L25.4231 408.472L24.6698 407.734L26.9567 405.398Z" fill="#444444"/>
<path d="M25.3916 375.257L27.7012 377.57L26.9635 378.307L24.6539 375.993L25.3916 375.257Z" fill="#444444"/>
<path d="M86.5674 375.165L87.304 375.902L84.9907 378.212L84.2542 377.475L86.5674 375.165Z" fill="#444444"/>
<path d="M85.0006 405.338L87.3123 407.649L86.5752 408.386L84.2636 406.075L85.0006 405.338Z" fill="#444444"/>
<path d="M36.9214 357.273L41.2803 361.643L56.0268 346.897L70.7497 361.643L75.1204 357.273L56.0268 338.179L36.9214 357.273Z" fill="#444444"/>
<path d="M72.834 357.332L70.773 359.393L56.0502 344.646L41.3036 359.381L39.2663 357.332L56.0502 340.548L72.834 357.332ZM41.3036 364.024L56.0502 349.277L70.7493 363.965L77.4297 357.332L56.0264 335.917L34.6113 357.332L41.3036 364.024Z" fill="#444444"/>
<path d="M68.4421 361.643L56.0289 374.056L43.5921 361.643L56.0289 349.218L68.4421 361.643ZM56.0289 378.652L73.0615 361.608L56.0289 344.551L38.9609 361.608L56.0289 378.652Z" fill="#444444"/>
<path d="M2.31099 391.906L21.4045 411L25.7752 406.629L11.0641 391.906L25.7988 377.171L21.4045 372.789L2.31099 391.906Z" fill="#444444"/>
<path d="M23.4643 406.629L21.4034 408.69L4.61951 391.906L21.4034 375.099L23.4762 377.172L8.75335 391.906L23.4643 406.629ZM21.4034 413.321L28.0956 406.629L13.3727 391.906L28.1074 377.172L21.4034 370.479L0.00015159 391.906L21.4034 413.321Z" fill="#444444"/>
<path d="M38.1901 391.906L25.7769 404.319L13.3756 391.906L25.8006 379.493L38.1901 391.906ZM25.7769 408.95L42.8213 391.906L25.8006 374.862L8.75621 391.906L25.7769 408.95Z" fill="#444444"/>
<path d="M100.895 391.728L86.1718 406.451L90.5543 410.822L109.66 391.728L90.5543 372.611L86.1718 376.994L100.895 391.728Z" fill="#444444"/>
<path d="M107.339 391.681L90.6023 408.512L88.5295 406.451L103.217 391.681L88.4821 376.946L90.6023 374.921L107.339 391.681ZM90.6023 413.132L111.923 391.681L90.6023 370.29L83.8983 376.994L98.5856 391.681L83.8508 406.404L90.6023 413.132Z" fill="#444444"/>
<path d="M98.5828 391.681L86.1697 404.094L73.7683 391.681L86.1697 379.268L98.5828 391.681ZM86.1697 408.726L103.214 391.681L86.1697 374.637L69.1371 391.681L86.1697 408.726Z" fill="#444444"/>
<path d="M68.44 421.885L56.0269 434.322L43.6137 421.909L56.0269 409.448L68.44 421.885ZM56.0269 438.929L73.0713 421.885L55.8492 404.71L54.7476 406.167L38.9824 421.932L56.0269 438.929Z" fill="#444444"/>
<path d="M30.0161 365.078L28.7724 366.322L43.1518 382.845L46.6934 379.303L30.0161 365.078Z" fill="#444444"/>
<path d="M29.0329 417.609L30.2647 418.853L46.7998 404.473L43.2583 400.932L29.0329 417.609Z" fill="#444444"/>
<path d="M83.0322 365.895L81.8004 364.651L65.2653 379.031L68.8187 382.572L83.0322 365.895Z" fill="#444444"/>
<path d="M81.7512 418.912L82.9949 417.68L68.6155 401.145L65.0739 404.686L81.7512 418.912Z" fill="#444444"/>
<path d="M84.5143 358.054H89.6904V363.23H84.5143V358.054Z" fill="#444444"/>
<path d="M84.3708 420.428H89.5469V425.604H84.3708V420.428Z" fill="#444444"/>
<path d="M22.506 420.428H27.6821V425.604H22.506V420.428Z" fill="#444444"/>
<path d="M22.3766 358.564H27.5527V363.74H22.3766V358.564Z" fill="#444444"/>
<path d="M36.9214 537.863L56.0268 556.956L75.1204 537.863L70.7497 533.492L56.0268 548.227L41.2921 533.492L36.9214 537.863Z" fill="#444444"/>
<path d="M72.8332 537.862L56.0494 554.646L39.2655 537.862L41.3147 535.813L56.0494 550.536L70.7723 535.813L72.8332 537.862ZM56.0494 559.277L77.4526 537.862L70.7723 531.182L56.0257 545.928L41.291 531.206L34.6106 537.886L56.0494 559.277Z" fill="#444444"/>
<path d="M70.3246 531.617L72.6362 533.929L71.8992 534.666L69.5876 532.354L70.3246 531.617Z" fill="#444444"/>
<path d="M41.7136 531.612L42.4507 532.349L40.1391 534.661L39.402 533.924L41.7136 531.612Z" fill="#444444"/>
<path d="M40.1423 472.047L42.4556 474.357L41.7358 475.078L39.4226 472.768L40.1423 472.047Z" fill="#444444"/>
<path d="M71.9169 472.034L72.6541 472.754L70.3696 475.093L69.6325 474.373L71.9169 472.034Z" fill="#444444"/>
<path d="M64.7686 503.454L55.9325 494.618L47.0964 503.454L55.9325 512.302L64.7686 503.454ZM56.0746 487.961L71.5437 503.419L56.0746 518.888L40.6174 503.419L56.0746 487.961Z" fill="#444444"/>
<path d="M26.9567 517.005L27.71 517.742L25.4231 520.079L24.6698 519.341L26.9567 517.005Z" fill="#444444"/>
<path d="M25.3916 486.864L27.7012 489.177L26.9635 489.914L24.6539 487.6L25.3916 486.864Z" fill="#444444"/>
<path d="M86.5674 486.771L87.304 487.509L84.9907 489.819L84.2542 489.081L86.5674 486.771Z" fill="#444444"/>
<path d="M85.0006 516.945L87.3123 519.256L86.5752 519.993L84.2636 517.682L85.0006 516.945Z" fill="#444444"/>
<path d="M36.9214 468.879L41.2803 473.25L56.0268 458.504L70.7497 473.25L75.1204 468.879L56.0268 449.786L36.9214 468.879Z" fill="#444444"/>
<path d="M72.834 468.939L70.773 470.999L56.0502 456.253L41.3036 470.988L39.2663 468.939L56.0502 452.155L72.834 468.939ZM41.3036 475.631L56.0502 460.884L70.7493 475.571L77.4297 468.939L56.0264 447.523L34.6113 468.939L41.3036 475.631Z" fill="#444444"/>
<path d="M68.4421 473.25L56.0289 485.663L43.5921 473.25L56.0289 460.825L68.4421 473.25ZM56.0289 490.259L73.0615 473.214L56.0289 456.158L38.9609 473.214L56.0289 490.259Z" fill="#444444"/>
<path d="M2.31099 503.513L21.4045 522.607L25.7752 518.236L11.0641 503.513L25.7988 488.778L21.4045 484.396L2.31099 503.513Z" fill="#444444"/>
<path d="M23.4643 518.236L21.4034 520.297L4.61951 503.513L21.4034 486.706L23.4762 488.779L8.75335 503.513L23.4643 518.236ZM21.4034 524.928L28.0956 518.236L13.3727 503.513L28.1074 488.779L21.4034 482.086L0.00015159 503.513L21.4034 524.928Z" fill="#444444"/>
<path d="M38.1901 503.513L25.7769 515.926L13.3756 503.513L25.8006 491.1L38.1901 503.513ZM25.7769 520.557L42.8213 503.513L25.8006 486.469L8.75621 503.513L25.7769 520.557Z" fill="#444444"/>
<path d="M100.895 503.335L86.1718 518.058L90.5543 522.429L109.66 503.335L90.5543 484.218L86.1718 488.601L100.895 503.335Z" fill="#444444"/>
<path d="M107.339 503.288L90.6023 520.119L88.5295 518.058L103.217 503.288L88.4821 488.553L90.6023 486.528L107.339 503.288ZM90.6023 524.738L111.923 503.288L90.6023 481.896L83.8983 488.601L98.5856 503.288L83.8508 518.011L90.6023 524.738Z" fill="#444444"/>
<path d="M98.5828 503.288L86.1697 515.701L73.7683 503.288L86.1697 490.875L98.5828 503.288ZM86.1697 520.333L103.214 503.288L86.1697 486.244L69.1371 503.288L86.1697 520.333Z" fill="#444444"/>
<path d="M68.44 533.492L56.0269 545.929L43.6137 533.516L56.0269 521.055L68.44 533.492ZM56.0269 550.536L73.0713 533.492L55.8492 516.317L54.7476 517.774L38.9824 533.539L56.0269 550.536Z" fill="#444444"/>
<path d="M30.0161 476.685L28.7724 477.929L43.1518 494.452L46.6934 490.91L30.0161 476.685Z" fill="#444444"/>
<path d="M29.0329 529.216L30.2647 530.46L46.7998 516.08L43.2583 512.539L29.0329 529.216Z" fill="#444444"/>
<path d="M83.0322 477.502L81.8004 476.258L65.2653 490.638L68.8187 494.179L83.0322 477.502Z" fill="#444444"/>
<path d="M81.7512 530.519L82.9949 529.287L68.6155 512.752L65.0739 516.293L81.7512 530.519Z" fill="#444444"/>
<path d="M84.5143 469.661H89.6904V474.837H84.5143V469.661Z" fill="#444444"/>
<path d="M84.3708 532.035H89.5469V537.211H84.3708V532.035Z" fill="#444444"/>
<path d="M22.506 532.035H27.6821V537.211H22.506V532.035Z" fill="#444444"/>
<path d="M22.3766 470.171H27.5527V475.347H22.3766V470.171Z" fill="#444444"/>
<path d="M36.9214 649.47L56.0268 668.563L75.1204 649.47L70.7497 645.099L56.0268 659.834L41.2921 645.099L36.9214 649.47Z" fill="#444444"/>
<path d="M72.8332 649.469L56.0494 666.253L39.2655 649.469L41.3147 647.42L56.0494 662.143L70.7723 647.42L72.8332 649.469ZM56.0494 670.884L77.4526 649.469L70.7723 642.789L56.0257 657.535L41.291 642.813L34.6106 649.493L56.0494 670.884Z" fill="#444444"/>
<path d="M70.3246 643.224L72.6362 645.536L71.8992 646.273L69.5876 643.961L70.3246 643.224Z" fill="#444444"/>
<path d="M41.7136 643.219L42.4507 643.956L40.1391 646.268L39.402 645.531L41.7136 643.219Z" fill="#444444"/>
<path d="M40.1423 583.654L42.4556 585.964L41.7358 586.685L39.4226 584.375L40.1423 583.654Z" fill="#444444"/>
<path d="M71.9169 583.641L72.6541 584.361L70.3696 586.7L69.6325 585.979L71.9169 583.641Z" fill="#444444"/>
<path d="M64.7686 615.061L55.9325 606.225L47.0964 615.061L55.9325 623.909L64.7686 615.061ZM56.0746 599.568L71.5437 615.026L56.0746 630.495L40.6174 615.026L56.0746 599.568Z" fill="#444444"/>
<path d="M26.9567 628.612L27.71 629.349L25.4231 631.685L24.6698 630.948L26.9567 628.612Z" fill="#444444"/>
<path d="M25.3916 598.471L27.7012 600.784L26.9635 601.521L24.6539 599.207L25.3916 598.471Z" fill="#444444"/>
<path d="M86.5674 598.378L87.304 599.116L84.9907 601.426L84.2542 600.688L86.5674 598.378Z" fill="#444444"/>
<path d="M85.0006 628.552L87.3123 630.863L86.5752 631.6L84.2636 629.289L85.0006 628.552Z" fill="#444444"/>
<path d="M36.9214 580.486L41.2803 584.857L56.0268 570.11L70.7497 584.857L75.1204 580.486L56.0268 561.393L36.9214 580.486Z" fill="#444444"/>
<path d="M72.834 580.545L70.773 582.606L56.0502 567.86L41.3036 582.595L39.2663 580.545L56.0502 563.762L72.834 580.545ZM41.3036 587.238L56.0502 572.491L70.7493 587.178L77.4297 580.545L56.0264 559.13L34.6113 580.545L41.3036 587.238Z" fill="#444444"/>
<path d="M68.4421 584.857L56.0289 597.27L43.5921 584.857L56.0289 572.432L68.4421 584.857ZM56.0289 601.866L73.0615 584.821L56.0289 567.765L38.9609 584.821L56.0289 601.866Z" fill="#444444"/>
<path d="M2.31099 615.12L21.4045 634.213L25.7752 629.843L11.0641 615.12L25.7988 600.385L21.4045 596.003L2.31099 615.12Z" fill="#444444"/>
<path d="M23.4643 629.843L21.4034 631.904L4.61951 615.12L21.4034 598.313L23.4762 600.386L8.75335 615.12L23.4643 629.843ZM21.4034 636.535L28.0956 629.843L13.3727 615.12L28.1074 600.386L21.4034 593.693L0.00015159 615.12L21.4034 636.535Z" fill="#444444"/>
<path d="M38.1901 615.12L25.7769 627.533L13.3756 615.12L25.8006 602.707L38.1901 615.12ZM25.7769 632.164L42.8213 615.12L25.8006 598.075L8.75621 615.12L25.7769 632.164Z" fill="#444444"/>
<path d="M100.895 614.942L86.1718 629.665L90.5543 634.036L109.66 614.942L90.5543 595.825L86.1718 600.207L100.895 614.942Z" fill="#444444"/>
<path d="M107.339 614.895L90.6023 631.726L88.5295 629.665L103.217 614.895L88.4821 600.16L90.6023 598.135L107.339 614.895ZM90.6023 636.345L111.923 614.895L90.6023 593.503L83.8983 600.207L98.5856 614.895L83.8508 629.618L90.6023 636.345Z" fill="#444444"/>
<path d="M98.5828 614.895L86.1697 627.308L73.7683 614.895L86.1697 602.482L98.5828 614.895ZM86.1697 631.939L103.214 614.895L86.1697 597.851L69.1371 614.895L86.1697 631.939Z" fill="#444444"/>
<path d="M68.44 645.099L56.0269 657.536L43.6137 645.122L56.0269 632.662L68.44 645.099ZM56.0269 662.143L73.0713 645.099L55.8492 627.924L54.7476 629.381L38.9824 645.146L56.0269 662.143Z" fill="#444444"/>
<path d="M30.0161 588.292L28.7724 589.536L43.1518 606.059L46.6934 602.517L30.0161 588.292Z" fill="#444444"/>
<path d="M29.0329 640.823L30.2647 642.066L46.7998 627.687L43.2583 624.146L29.0329 640.823Z" fill="#444444"/>
<path d="M83.0322 589.109L81.8004 587.865L65.2653 602.245L68.8187 605.786L83.0322 589.109Z" fill="#444444"/>
<path d="M81.7512 642.126L82.9949 640.894L68.6155 624.359L65.0739 627.9L81.7512 642.126Z" fill="#444444"/>
<path d="M84.5143 581.268H89.6904V586.444H84.5143V581.268Z" fill="#444444"/>
<path d="M84.3708 643.642H89.5469V648.818H84.3708V643.642Z" fill="#444444"/>
<path d="M22.506 643.642H27.6821V648.818H22.506V643.642Z" fill="#444444"/>
<path d="M22.3766 581.778H27.5527V586.954H22.3766V581.778Z" fill="#444444"/>
<path d="M36.9214 90.4548L56.0268 109.548L75.1204 90.4548L70.7497 86.0841L56.0268 100.819L41.2921 86.0841L36.9214 90.4548Z" fill="#444444"/>
<path d="M72.8332 90.4546L56.0494 107.238L39.2655 90.4546L41.3147 88.4054L56.0494 103.128L70.7723 88.4054L72.8332 90.4546ZM56.0494 111.87L77.4526 90.4546L70.7723 83.7742L56.0257 98.5207L41.291 83.7979L34.6106 90.4782L56.0494 111.87Z" fill="#444444"/>
<path d="M70.3246 84.2091L72.6362 86.5208L71.8992 87.2578L69.5876 84.9462L70.3246 84.2091Z" fill="#444444"/>
<path d="M41.7136 84.2042L42.4507 84.9413L40.1391 87.2529L39.402 86.5159L41.7136 84.2042Z" fill="#444444"/>
<path d="M40.1423 24.6396L42.4556 26.9496L41.7358 27.6704L39.4226 25.3604L40.1423 24.6396Z" fill="#444444"/>
<path d="M71.9169 24.6262L72.6541 25.3463L70.3696 27.6848L69.6325 26.9647L71.9169 24.6262Z" fill="#444444"/>
<path d="M64.7686 56.0461L55.9325 47.21L47.0964 56.0461L55.9325 64.894L64.7686 56.0461ZM56.0746 40.5533L71.5437 56.0106L56.0746 71.4797L40.6174 56.0106L56.0746 40.5533Z" fill="#444444"/>
<path d="M26.9567 69.597L27.71 70.3344L25.4231 72.6705L24.6698 71.9331L26.9567 69.597Z" fill="#444444"/>
<path d="M25.3916 39.456L27.7012 41.7697L26.9635 42.5061L24.6539 40.1924L25.3916 39.456Z" fill="#444444"/>
<path d="M86.5674 39.3636L87.304 40.1012L84.9907 42.4112L84.2542 41.6736L86.5674 39.3636Z" fill="#444444"/>
<path d="M85.0006 69.5369L87.3123 71.8485L86.5752 72.5856L84.2636 70.2739L85.0006 69.5369Z" fill="#444444"/>
<path d="M36.9214 21.4716L41.2803 25.8423L56.0268 11.0957L70.7497 25.8423L75.1204 21.4716L56.0268 2.37805L36.9214 21.4716Z" fill="#444444"/>
<path d="M72.834 21.5308L70.773 23.5917L56.0502 8.8452L41.3036 23.5799L39.2663 21.5308L56.0502 4.74694L72.834 21.5308ZM41.3036 28.223L56.0502 13.4765L70.7493 28.1638L77.4297 21.5308L56.0264 0.115723L34.6113 21.5308L41.3036 28.223Z" fill="#444444"/>
<path d="M68.4421 25.8423L56.0289 38.2555L43.5921 25.8423L56.0289 13.4173L68.4421 25.8423ZM56.0289 42.8512L73.0615 25.8067L56.0289 8.75049L38.9609 25.8067L56.0289 42.8512Z" fill="#444444"/>
<path d="M2.31099 56.1052L21.4045 75.1987L25.7752 70.828L11.0641 56.1052L25.7988 41.3704L21.4045 36.9879L2.31099 56.1052Z" fill="#444444"/>
<path d="M23.4643 70.8282L21.4034 72.8892L4.61951 56.1054L21.4034 39.2979L23.4762 41.3707L8.75335 56.1054L23.4643 70.8282ZM21.4034 77.5205L28.0956 70.8282L13.3727 56.1054L28.1074 41.3707L21.4034 34.6785L0.00015159 56.1054L21.4034 77.5205Z" fill="#444444"/>
<path d="M38.1901 56.1051L25.7769 68.5183L13.3756 56.1051L25.8006 43.6919L38.1901 56.1051ZM25.7769 73.1495L42.8213 56.1051L25.8006 39.0607L8.75621 56.1051L25.7769 73.1495Z" fill="#444444"/>
<path d="M100.895 55.9275L86.1718 70.6504L90.5543 75.0211L109.66 55.9275L90.5543 36.8103L86.1718 41.1928L100.895 55.9275Z" fill="#444444"/>
<path d="M107.339 55.8802L90.6023 72.7114L88.5295 70.6504L103.217 55.8802L88.4821 41.1454L90.6023 39.12L107.339 55.8802ZM90.6023 77.3308L111.923 55.8802L90.6023 34.4888L83.8983 41.1928L98.5856 55.8802L83.8508 70.603L90.6023 77.3308Z" fill="#444444"/>
<path d="M98.5828 55.8804L86.1697 68.2935L73.7683 55.8804L86.1697 43.4672L98.5828 55.8804ZM86.1697 72.9248L103.214 55.8804L86.1697 38.8359L69.1371 55.8804L86.1697 72.9248Z" fill="#444444"/>
<path d="M68.44 86.0841L56.0269 98.521L43.6137 86.1078L56.0269 73.6473L68.44 86.0841ZM56.0269 103.129L73.0713 86.0841L55.8492 68.9094L54.7476 70.3663L38.9824 86.1315L56.0269 103.129Z" fill="#444444"/>
<path d="M30.0161 29.2773L28.7724 30.521L43.1518 47.0443L46.6934 43.5027L30.0161 29.2773Z" fill="#444444"/>
<path d="M29.0329 81.8084L30.2647 83.052L46.7998 68.6726L43.2583 65.1311L29.0329 81.8084Z" fill="#444444"/>
<path d="M83.0322 30.0942L81.8004 28.8505L65.2653 43.2299L68.8187 46.7714L83.0322 30.0942Z" fill="#444444"/>
<path d="M81.7512 83.1108L82.9949 81.879L68.6155 65.3439L65.0739 68.8854L81.7512 83.1108Z" fill="#444444"/>
<path d="M84.5143 22.2533H89.6904V27.4294H84.5143V22.2533Z" fill="#444444"/>
<path d="M84.3708 84.6273H89.5469V89.8035H84.3708V84.6273Z" fill="#444444"/>
<path d="M22.506 84.6273H27.6821V89.8035H22.506V84.6273Z" fill="#444444"/>
<path d="M22.3766 22.7628H27.5527V27.9389H22.3766V22.7628Z" fill="#444444"/>
</svg>
