<svg width="97" height="546" viewBox="0 0 97 546" fill="none" xmlns="http://www.w3.org/2000/svg">
<path d="M62.4445 116.307L69.9713 109.102L69.9713 97.9729L62.4445 90.7243C62.3713 90.739 62.298 90.7682 62.2248 90.7682L59.589 90.7682C58.5493 90.7682 57.7146 91.5883 57.7146 92.584L57.7146 114.432C57.7146 115.443 58.5639 116.248 59.589 116.248L62.2248 116.248C62.298 116.263 62.3713 116.292 62.4445 116.307Z" fill="#535E4D"/>
<path d="M71.2161 96.2295L83.3996 96.2295L90.531 89.4056C90.4871 89.2591 90.4432 89.1127 90.4432 88.9516L90.4432 86.4036C90.4432 85.3932 89.5938 84.5878 88.5688 84.5878L66.0177 84.5878C64.978 84.5878 64.1433 85.4079 64.1433 86.4036L64.1433 88.9516C64.1433 89.0834 64.0994 89.2005 64.0701 89.3177L71.2161 96.2295Z" fill="#535E4D"/>
<path d="M94.9387 90.7682L92.3028 90.7682C92.2589 90.7682 92.215 90.739 92.1711 90.739L84.5564 98.0461L84.5564 109.073L92.0832 116.307C92.1564 116.292 92.2296 116.263 92.3175 116.263L94.9533 116.263C95.993 116.263 96.8277 115.443 96.8277 114.447L96.8277 92.5987C96.8131 91.5883 95.9784 90.7682 94.9387 90.7682Z" fill="#535E4D"/>
<path d="M83.2961 110.8L71.2444 110.8L64.0251 117.726C64.0544 117.843 64.0984 117.96 64.0984 118.078L64.0984 120.626C64.0984 121.636 64.9477 122.441 65.9727 122.441L88.5239 122.441C89.5635 122.441 90.3982 121.621 90.3982 120.626L90.3982 118.078C90.3982 117.946 90.4422 117.843 90.4714 117.726L83.2961 110.8Z" fill="#535E4D"/>
<path d="M62.4581 290.799L69.9849 283.594L69.9849 272.465L62.4581 265.216C62.3849 265.231 62.3117 265.26 62.2385 265.26L59.6026 265.26C58.563 265.26 57.7283 266.08 57.7283 267.076L57.7283 288.924C57.7283 289.935 58.5776 290.74 59.6026 290.74L62.2385 290.74C62.3117 290.755 62.3849 290.784 62.4581 290.799Z" fill="#535E4D"/>
<path d="M71.2161 270.723L83.3996 270.723L90.531 263.899C90.4871 263.752 90.4432 263.606 90.4432 263.445L90.4432 260.897C90.4432 259.886 89.5938 259.081 88.5688 259.081L66.0177 259.081C64.978 259.081 64.1433 259.901 64.1433 260.897L64.1433 263.445C64.1433 263.577 64.0994 263.694 64.0701 263.811L71.2161 270.723Z" fill="#535E4D"/>
<path d="M94.9524 265.26L92.3165 265.26C92.2726 265.26 92.2287 265.231 92.1847 265.231L84.5701 272.538L84.5701 283.565L92.0969 290.799C92.1701 290.784 92.2433 290.755 92.3312 290.755L94.967 290.755C96.0067 290.755 96.8414 289.935 96.8414 288.939L96.8414 267.091C96.8267 266.08 95.9774 265.26 94.9524 265.26Z" fill="#535E4D"/>
<path d="M83.3115 285.293L71.2598 285.293L64.0405 292.219C64.0698 292.336 64.1137 292.454 64.1137 292.571L64.1137 295.119C64.1137 296.129 64.9631 296.935 65.9881 296.935L88.5392 296.935C89.5789 296.935 90.4136 296.115 90.4136 295.119L90.4136 292.571C90.4136 292.439 90.4576 292.336 90.4868 292.219L83.3115 285.293Z" fill="#535E4D"/>
<path d="M87.0457 139.107L77.2638 129.207L67.4965 139.107L57.7146 149.006L67.4965 158.905L77.2638 168.804L87.0457 158.905L96.8276 149.006L87.0457 139.107Z" fill="#535E4D"/>
<path d="M87.0603 313.043L77.2784 303.144L67.4965 313.043L57.7146 322.942L67.4965 332.841L77.2784 342.74L87.0603 332.841L96.8422 322.942L87.0603 313.043Z" fill="#535E4D"/>
<path d="M62.4445 116.307L69.9713 109.102L69.9713 97.9729L62.4445 90.7243C62.3713 90.739 62.298 90.7682 62.2248 90.7682L59.589 90.7682C58.5493 90.7682 57.7146 91.5883 57.7146 92.584L57.7146 114.432C57.7146 115.443 58.5639 116.248 59.589 116.248L62.2248 116.248C62.298 116.263 62.3713 116.292 62.4445 116.307Z" fill="#535E4D"/>
<path d="M71.2161 96.2295L83.3996 96.2295L90.531 89.4056C90.4871 89.2591 90.4432 89.1127 90.4432 88.9516L90.4432 86.4036C90.4432 85.3932 89.5938 84.5878 88.5688 84.5878L66.0177 84.5878C64.978 84.5878 64.1433 85.4079 64.1433 86.4036L64.1433 88.9516C64.1433 89.0834 64.0994 89.2005 64.0701 89.3177L71.2161 96.2295Z" fill="#535E4D"/>
<path d="M94.9387 90.7682L92.3028 90.7682C92.2589 90.7682 92.215 90.739 92.1711 90.739L84.5564 98.0461L84.5564 109.073L92.0832 116.307C92.1564 116.292 92.2296 116.263 92.3175 116.263L94.9533 116.263C95.993 116.263 96.8277 115.443 96.8277 114.447L96.8277 92.5987C96.8131 91.5883 95.9784 90.7682 94.9387 90.7682Z" fill="#535E4D"/>
<path d="M83.2961 110.8L71.2444 110.8L64.0251 117.726C64.0544 117.843 64.0984 117.96 64.0984 118.078L64.0984 120.626C64.0984 121.636 64.9477 122.441 65.9727 122.441L88.5239 122.441C89.5635 122.441 90.3982 121.621 90.3982 120.626L90.3982 118.078C90.3982 117.946 90.4422 117.843 90.4714 117.726L83.2961 110.8Z" fill="#535E4D"/>
<path d="M62.4581 290.799L69.9849 283.594L69.9849 272.465L62.4581 265.216C62.3849 265.231 62.3117 265.26 62.2385 265.26L59.6026 265.26C58.563 265.26 57.7283 266.08 57.7283 267.076L57.7283 288.924C57.7283 289.935 58.5776 290.74 59.6026 290.74L62.2385 290.74C62.3117 290.755 62.3849 290.784 62.4581 290.799Z" fill="#535E4D"/>
<path d="M71.2161 270.723L83.3996 270.723L90.531 263.899C90.4871 263.752 90.4432 263.606 90.4432 263.445L90.4432 260.897C90.4432 259.886 89.5938 259.081 88.5688 259.081L66.0177 259.081C64.978 259.081 64.1433 259.901 64.1433 260.897L64.1433 263.445C64.1433 263.577 64.0994 263.694 64.0701 263.811L71.2161 270.723Z" fill="#535E4D"/>
<path d="M94.9524 265.26L92.3165 265.26C92.2726 265.26 92.2287 265.231 92.1847 265.231L84.5701 272.538L84.5701 283.565L92.0969 290.799C92.1701 290.784 92.2433 290.755 92.3312 290.755L94.967 290.755C96.0067 290.755 96.8414 289.935 96.8414 288.939L96.8414 267.091C96.8267 266.08 95.9774 265.26 94.9524 265.26Z" fill="#535E4D"/>
<path d="M83.3115 285.293L71.2598 285.293L64.0405 292.219C64.0698 292.336 64.1137 292.454 64.1137 292.571L64.1137 295.119C64.1137 296.129 64.9631 296.935 65.9881 296.935L88.5392 296.935C89.5789 296.935 90.4136 296.115 90.4136 295.119L90.4136 292.571C90.4136 292.439 90.4576 292.336 90.4868 292.219L83.3115 285.293Z" fill="#535E4D"/>
<path d="M80.6468 236.339L77.2641 230.819L73.8668 236.339L70.4841 241.845L73.8668 247.366L77.2641 252.872L80.6468 247.366L84.0441 241.845L80.6468 236.339Z" fill="#535E4D"/>
<path d="M85.3918 223.087L69.1228 223.087L69.1228 185.16C69.1228 180.664 72.769 177.033 77.2646 177.033C81.7602 177.033 85.4065 180.679 85.4065 185.16L85.4065 223.087L85.3918 223.087Z" fill="#535E4D"/>
<path d="M75.1404 429.928L75.1404 545.334L79.3724 545.334L79.3724 429.928L75.1404 429.928Z" fill="#535E4D"/>
<path d="M80.6468 409.866L77.2641 404.36L73.8668 409.866L70.4841 415.386L73.8668 420.907L77.2641 426.413L80.6468 420.907L84.0441 415.386L80.6468 409.866Z" fill="#535E4D"/>
<path d="M85.3918 396.628L69.1228 396.628L69.1228 358.701C69.1228 354.205 72.769 350.574 77.2646 350.574C81.7602 350.574 85.4065 354.22 85.4065 358.701L85.4065 396.628L85.3918 396.628Z" fill="#535E4D"/>
<path d="M75.1404 0.300415L75.1404 52.2266L79.3724 52.2266L79.3724 0.300415L75.1404 0.300415Z" fill="#535E4D"/>
<path d="M80.6468 62.7985L77.2641 57.2778L73.8668 62.7985L70.4841 68.3044L73.8668 73.8251L77.2641 79.3311L80.6468 73.8251L84.0441 68.3044L80.6468 62.7985Z" fill="#535E4D"/>
<path d="M80.6468 236.339L77.2641 230.819L73.8668 236.339L70.4841 241.845L73.8668 247.366L77.2641 252.872L80.6468 247.366L84.0441 241.845L80.6468 236.339Z" fill="#535E4D"/>
<path d="M85.3918 223.087L69.1228 223.087L69.1228 185.16C69.1228 180.664 72.769 177.033 77.2646 177.033C81.7602 177.033 85.4065 180.679 85.4065 185.16L85.4065 223.087L85.3918 223.087Z" fill="#535E4D"/>
<path d="M75.1404 429.928L75.1404 545.334L79.3724 545.334L79.3724 429.928L75.1404 429.928Z" fill="#535E4D"/>
<path d="M80.6468 409.866L77.2641 404.36L73.8668 409.866L70.4841 415.386L73.8668 420.907L77.2641 426.413L80.6468 420.907L84.0441 415.386L80.6468 409.866Z" fill="#535E4D"/>
<path d="M85.3918 396.628L69.1228 396.628L69.1228 358.701C69.1228 354.205 72.769 350.574 77.2646 350.574C81.7602 350.574 85.4065 354.22 85.4065 358.701L85.4065 396.628L85.3918 396.628Z" fill="#535E4D"/>
<path d="M75.1404 0.300415L75.1404 52.2266L79.3724 52.2266L79.3724 0.300415L75.1404 0.300415Z" fill="#535E4D"/>
<path d="M80.6468 62.7985L77.2641 57.2778L73.8668 62.7985L70.4841 68.3044L73.8668 73.8251L77.2641 79.3311L80.6468 73.8251L84.0441 68.3044L80.6468 62.7985Z" fill="#535E4D"/>
<path d="M41.7966 116.746L21.1198 116.746L0.443115 116.746L0.443115 109.966C0.443114 98.5441 9.69786 89.304 21.1198 89.304C27.7387 89.304 33.6255 92.4085 37.4182 97.2555C40.1565 100.77 41.7966 105.178 41.7966 109.981L41.7966 116.746Z" fill="#535E4D"/>
<path d="M21.1189 125.063L28.426 139.004L41.781 146.618L28.426 154.248L21.1189 168.174L13.8117 154.248L0.456786 146.618L13.8117 139.004L21.1189 125.063Z" fill="#535E4D"/>
<path d="M19.0112 0.00743484L19.0112 51.8311L23.2432 51.8311L23.2432 0.00743466L19.0112 0.00743484Z" fill="#535E4D"/>
<path d="M19.0112 428.786L19.0112 543.973L23.2432 543.973L23.2432 428.786L19.0112 428.786Z" fill="#535E4D"/>
<path d="M24.5032 62.3746L21.1206 56.8686L17.7379 62.3746L14.3552 67.8806L17.7379 73.3719L21.1206 78.8779L24.5032 73.3719L27.8859 67.8806L24.5032 62.3746Z" fill="#535E4D"/>
<path d="M24.5032 235.579L21.1206 230.073L17.7379 235.579L14.3552 241.085L17.7379 246.576L21.1206 252.082L24.5032 246.576L27.8859 241.085L24.5032 235.579Z" fill="#535E4D"/>
<path d="M29.2471 222.355L13.0073 222.355L13.0073 184.502C13.0073 180.021 16.6389 176.389 21.1199 176.389C25.6008 176.389 29.2324 180.021 29.2324 184.502L29.2324 222.355L29.2471 222.355Z" fill="#535E4D"/>
<path d="M41.7966 285.719L21.1198 285.719L0.443115 285.719L0.443115 278.939C0.443114 267.517 9.69786 258.277 21.1198 258.277C27.7387 258.277 33.6255 261.381 37.4182 266.228C40.1565 269.743 41.7966 274.15 41.7966 278.953L41.7966 285.719Z" fill="#535E4D"/>
<path d="M21.1189 294.036L28.426 307.976L41.781 315.606L28.426 323.22L21.1189 337.161L13.8117 323.22L0.456786 315.606L13.8117 307.976L21.1189 294.036Z" fill="#535E4D"/>
<path d="M24.5032 408.783L21.1206 403.277L17.7379 408.783L14.3552 414.289L17.7379 419.78L21.1206 425.286L24.5032 419.78L27.8859 414.289L24.5032 408.783Z" fill="#535E4D"/>
<path d="M29.2471 395.56L13.0073 395.56L13.0073 357.706C13.0073 353.225 16.6389 349.593 21.1199 349.593C25.6008 349.593 29.2324 353.225 29.2324 357.706L29.2324 395.56L29.2471 395.56Z" fill="#535E4D"/>
</svg>
