<svg width="1117" height="443" viewBox="0 0 1117 443" fill="none" xmlns="http://www.w3.org/2000/svg">
<path d="M251.633 124.996L252.453 126.635H252.862C252.043 126.226 252.043 125.406 251.633 124.996Z" fill="#A16F46"/>
<path d="M42.6227 117.625C65.9832 117.625 82.3766 131.149 84.8356 152.051H69.2619C67.2127 138.936 57.3767 130.74 42.6227 130.74C26.2293 130.74 15.1638 141.395 15.1638 158.199C15.1638 174.592 25.8195 185.657 42.6227 185.657C57.7865 185.657 67.6226 177.461 69.6717 163.526H85.2454C82.7864 184.838 66.393 198.772 42.6227 198.772C17.6228 198.772 0 181.969 0 158.199C0 134.428 17.6228 117.625 42.6227 117.625Z" fill="#A16F46"/>
<path d="M93.8477 196.728V119.27H108.602V183.613H148.765V196.728H93.8477Z" fill="#A16F46"/>
<path d="M152.869 119.27H168.033V166.4C168.033 179.515 175.82 185.663 189.754 185.663C203.279 185.663 211.475 179.925 211.475 166.4V119.27H226.229V165.991C226.229 187.712 211.885 198.367 189.754 198.367C167.213 198.367 152.869 187.302 152.869 165.991V119.27Z" fill="#A16F46"/>
<path d="M249.183 165.571C250.413 179.096 259.019 185.243 275.003 185.243C289.347 185.243 295.495 181.965 295.495 174.998C295.495 170.08 293.036 167.211 284.839 165.981L259.019 161.473C244.265 159.014 236.069 151.637 236.069 140.162C236.069 125.817 249.593 117.211 270.905 117.211C293.855 117.211 307.79 128.686 309.429 148.358H294.265C293.036 136.473 285.249 130.326 270.905 130.326C257.38 130.326 251.232 134.014 251.232 140.162C251.642 145.08 254.101 147.129 261.888 148.768L287.708 153.276C302.871 156.145 310.658 163.112 310.658 174.998C310.658 189.752 297.544 198.358 275.003 198.358C250.413 198.358 235.659 186.473 234.02 165.571H249.183Z" fill="#A16F46"/>
<path d="M311.881 132.384V119.27H378.684V132.384H352.864V196.728H337.7V132.384H311.881Z" fill="#A16F46"/>
<path d="M385.65 196.728V119.27H449.175V132.384H400.814V150.417H447.945V163.532H400.814V183.613H449.584V196.728H385.65Z" fill="#A16F46"/>
<path d="M473.768 150.827H506.145C513.522 150.827 516.8 148.368 516.8 141.401C516.8 134.843 513.522 131.974 506.554 131.974H473.768V150.827ZM459.014 196.728V119.27H508.194C523.358 119.27 532.374 126.647 532.374 139.761C532.374 150.007 526.226 155.335 518.44 157.384V158.614C524.587 160.663 526.226 163.532 527.866 171.318L533.194 196.728H518.03L513.931 173.777C512.292 165.991 509.833 163.532 500.407 163.532H474.177V196.728H459.014Z" fill="#A16F46"/>
<path d="M552.047 165.571C553.276 179.096 561.883 185.243 577.866 185.243C592.21 185.243 598.358 181.965 598.358 174.998C598.358 170.08 595.899 167.211 587.702 165.981L561.883 161.473C547.129 159.014 538.932 151.637 538.932 140.162C538.932 125.817 552.456 117.211 573.768 117.211C596.719 117.211 610.653 128.686 612.292 148.358H597.128C595.899 136.473 588.112 130.326 573.768 130.326C560.243 130.326 554.096 134.014 554.096 140.162C554.506 145.08 556.965 147.129 564.751 148.768L590.571 153.276C605.735 156.145 613.522 163.112 613.522 174.998C613.522 189.752 600.407 198.358 577.866 198.358C553.276 198.358 538.522 186.473 536.883 165.571H552.047Z" fill="#A16F46"/>
<path d="M111.476 302.465H2.05078V287.301H95.4928V242.629H111.476C111.476 243.858 111.476 283.612 111.476 285.252C111.476 286.481 111.476 300.825 111.476 302.465Z" fill="#A16F46"/>
<path d="M420.899 288.114C415.571 290.163 409.014 290.983 402.866 288.934C400.817 288.114 399.178 286.885 398.358 285.245C397.129 283.606 396.719 281.557 396.719 279.098C396.719 277.458 397.129 275.819 397.948 273.77C398.768 271.721 399.998 270.081 402.047 268.032C404.096 266.393 406.555 264.344 409.834 263.114C411.883 262.295 413.522 261.475 415.571 261.475L422.948 283.196C423.358 284.426 423.768 285.245 424.178 286.475C423.358 287.294 422.128 287.704 420.899 288.114ZM348.358 278.278C346.719 280.737 344.26 282.786 341.391 284.425C340.162 285.245 338.522 286.065 337.293 286.884L332.785 274.999C331.555 271.721 330.326 268.852 329.506 266.803C328.686 264.344 327.457 262.294 326.637 260.655C326.227 260.245 326.227 259.836 325.818 259.426L327.867 258.606C330.736 257.376 333.604 256.967 337.293 256.967C341.801 256.967 345.08 258.196 347.129 260.655C349.178 263.114 350.408 265.983 350.408 269.672C350.817 272.95 349.998 275.819 348.358 278.278ZM615.57 257.377H610.652H599.177V275.409C599.177 278.688 599.177 284.425 598.767 286.884H534.013C536.882 282.376 538.521 276.639 538.521 270.901C538.521 256.147 528.275 247.54 510.653 247.54H474.997V262.294H509.423C517.21 262.294 520.898 265.573 520.898 272.95C520.898 280.327 517.21 286.884 508.603 286.884H449.178C445.899 286.884 443.03 286.065 441.391 284.835C439.751 283.196 437.702 280.327 436.883 276.229L427.456 245.082H422.948C418.03 245.082 412.702 245.901 408.194 247.131C403.276 248.77 398.768 250.819 394.67 253.688C390.571 256.557 387.293 260.245 384.834 264.344C382.375 268.852 381.145 273.77 381.145 279.098C381.145 281.557 381.555 284.016 381.965 286.065H359.834C361.883 283.196 363.932 280.327 365.162 277.049C366.801 273.36 367.211 270.081 367.211 266.393C367.211 261.475 365.981 257.376 363.932 253.688C361.473 249.59 358.194 246.721 354.096 244.262C347.129 240.573 337.293 240.163 327.457 242.622C323.768 243.852 319.67 244.672 315.982 246.721C312.703 248.36 310.244 250.409 307.375 252.458L304.916 254.098L309.014 260.655C310.244 262.704 311.064 264.344 312.293 266.803C313.523 268.852 314.342 271.311 315.162 273.36C315.982 275.409 316.801 277.048 317.211 278.278L320.49 286.065H290.982H137.294V224.59H121.311V301.229H335.654H372.948L394.67 301.639C396.309 302.458 398.358 303.278 400.407 303.688C402.866 304.507 405.325 304.507 407.784 304.507C411.473 304.507 415.571 304.097 419.669 302.868C423.768 301.638 427.866 299.999 431.965 297.54C433.194 298.36 434.014 298.77 435.243 299.179C437.292 300.409 439.751 300.819 443.03 301.229H448.358C457.374 301.229 475.407 301.229 475.407 301.229H615.57V289.344V286.065V257.377Z" fill="#A16F46"/>
<path d="M443.441 302.055C444.671 302.055 445.9 302.465 447.54 302.465H448.769L449.179 302.055H443.441Z" fill="#A16F46"/>
<path d="M589.745 244.27C589.745 246.729 588.925 248.778 587.286 250.418C585.647 252.057 583.598 252.877 581.139 252.877C578.68 252.877 576.63 252.057 574.991 250.418C573.762 249.188 573.352 248.369 572.942 246.729C572.532 247.959 571.712 249.188 570.893 250.418C567.614 253.696 561.876 253.696 558.598 250.418C556.958 248.778 556.139 246.729 556.139 244.27C556.139 241.811 556.958 239.352 558.598 237.713C561.876 234.434 567.614 234.434 570.893 237.713C572.122 238.942 572.532 239.762 572.942 241.401C573.352 240.172 574.171 238.942 574.991 237.713C578.27 234.434 584.007 234.434 587.286 237.713C588.925 239.352 589.745 241.811 589.745 244.27Z" fill="#A16F46"/>
<path d="M504.502 315.989C504.502 318.448 503.682 320.497 502.043 322.546C500.404 324.186 498.355 325.005 495.896 325.005C493.437 325.005 491.387 324.186 489.748 322.546C488.109 320.907 487.289 318.448 487.289 315.989C487.289 313.53 488.109 311.071 489.748 309.432C493.027 306.153 498.764 306.153 502.043 309.432C503.273 311.481 504.502 313.53 504.502 315.989Z" fill="#A16F46"/>
<path d="M78.6897 242.212C78.6897 244.671 77.8701 246.72 76.2307 248.769C74.5914 250.408 72.1324 251.228 69.6734 251.228C67.2144 251.228 65.1652 250.408 63.5259 248.769C62.2964 247.54 61.8866 246.72 61.4767 245.081C61.0669 246.31 60.2472 247.54 59.4276 248.769C57.7882 250.408 55.3292 251.228 53.2801 251.228C50.8211 251.228 48.7719 250.408 46.7227 248.769C45.0834 247.13 44.2637 245.081 44.2637 242.212C44.2637 239.753 45.0834 237.703 46.7227 235.654C50.0014 232.376 56.1489 232.376 59.4276 235.654C60.6571 236.884 61.0669 237.703 61.4767 239.343C61.8866 238.113 62.7062 236.884 63.5259 235.654C66.8046 232.376 72.952 232.376 76.2307 235.654C77.8701 237.703 78.6897 239.753 78.6897 242.212Z" fill="#A16F46"/>
<path d="M865.162 191.393H865.572L867.621 189.343V188.934L865.162 191.393Z" fill="#A16F46"/>
<path d="M1016.8 270.08L968.848 222.13L1016.8 174.179L1064.75 222.13L1016.8 270.08ZM895.078 256.146L861.062 222.13L895.078 188.114L929.094 222.13L895.078 256.146ZM942.209 343.851L894.258 391.801L846.308 343.851L894.258 295.9L942.209 343.851ZM846.718 99.5896L894.668 51.639L942.619 99.5896L894.668 147.54L846.718 99.5896ZM772.128 270.08L724.177 222.13L772.128 174.179L820.079 222.13L772.128 270.08ZM1033.6 139.753L1016.8 156.556L1013.93 159.425L1008.19 165.163L1005.32 168.032L953.275 220.081L896.717 163.524L952.045 108.196L959.012 101.229L961.061 99.1797L977.865 82.3765L895.488 0L815.57 79.9176L813.111 82.3765L893.849 163.114L868.439 188.523L866.39 190.573L837.292 219.671L784.833 166.802L782.374 164.343L775.816 157.786L756.554 138.524L751.226 143.852L674.178 220.9L755.325 302.047L755.735 301.638L756.964 302.867L773.357 286.474L779.915 279.916L782.374 277.457L837.701 222.13L866.8 251.228L868.849 253.277L893.849 278.277L841.39 330.736L838.521 333.605L832.374 339.752L829.505 342.621L813.111 359.014L812.701 359.424L820.079 366.801L895.488 442.211L971.307 366.391L977.865 359.834L961.061 343.031L952.045 334.014L899.996 281.966L896.717 278.687L925.816 249.589L927.865 247.54L952.865 222.54L1008.19 277.867L1010.65 280.326L1017.21 286.884L1033.6 303.277L1115.98 220.9L1033.6 139.753Z" fill="#A16F46"/>
<path d="M754.5 302.868L754.091 303.278L755.32 304.507L755.73 304.097L754.5 302.868Z" fill="#A16F46"/>
<path d="M772.129 288.104L778.686 281.547L772.129 288.104Z" fill="#A16F46"/>
<path d="M1115.81 221.792L1033.22 304.383L1033.51 304.673L1116.1 222.081L1115.81 221.792Z" fill="#A16F46"/>
<path d="M1010.25 281.547L1016.39 288.104H1016.8L1010.25 281.547Z" fill="#A16F46"/>
<path d="M998.77 122.95L943.032 186.884L936.885 180.736L934.836 178.277L929.508 172.949L993.852 118.441L998.77 122.95Z" fill="#A16F46"/>
<path d="M997.95 321.309L993.032 326.227L929.508 270.899L937.295 263.112L943.032 256.965L997.95 321.309Z" fill="#A16F46"/>
<path d="M859.421 172.956L845.896 186.891L790.979 122.547L795.487 117.629L859.421 172.956Z" fill="#A16F46"/>
<path d="M859.42 270.903L795.077 325.821L790.568 321.313L845.896 257.379L859.42 270.903Z" fill="#A16F46"/>
<path d="M781.967 89.3438H761.885V109.426H781.967V89.3438Z" fill="#A16F46"/>
<path d="M783.195 334.016H763.113V354.098H783.195V334.016Z" fill="#A16F46"/>
<path d="M1026.63 334.016H1006.55V354.098H1026.63V334.016Z" fill="#A16F46"/>
<path d="M1027.45 89.3438H1007.37V109.426H1027.45V89.3438Z" fill="#A16F46"/>
<path d="M781.143 109.429H781.962V108.609L781.143 109.429Z" fill="#A16F46"/>
<path d="M754.09 303.679L755.319 304.909L755.729 304.499L754.5 302.859L754.09 303.679Z" fill="#A16F46"/>
<path d="M781.143 334.016L783.192 336.065V334.016H781.143Z" fill="#A16F46"/>
<path d="M1007.37 109.429H1008.19L1007.37 108.609V109.429Z" fill="#A16F46"/>
<path d="M977.041 360.66L970.074 367.627L977.041 360.66Z" fill="#A16F46"/>
<path d="M1006.55 334.016V335.655L1008.19 334.016H1006.55Z" fill="#A16F46"/>
<path d="M1115.81 221.792L1033.22 304.383L1033.51 304.673L1116.1 222.081L1115.81 221.792Z" fill="#A16F46"/>
<path d="M865.162 191.393H865.572L867.621 189.343V188.934L865.162 191.393Z" fill="#A16F46"/>
</svg>
