<svg width="1117" height="443" viewBox="0 0 1117 443" fill="none" xmlns="http://www.w3.org/2000/svg">
<path d="M251.633 80.3242L252.453 81.9636H252.862C252.043 81.5538 252.043 80.7341 251.633 80.3242Z" fill="white"/>
<path d="M42.6227 117.625C65.9832 117.625 82.3766 131.149 84.8356 152.051H69.2619C67.2127 138.936 57.3767 130.74 42.6227 130.74C26.2293 130.74 15.1638 141.395 15.1638 158.199C15.1638 174.592 25.8195 185.657 42.6227 185.657C57.7865 185.657 67.6226 177.461 69.6717 163.526H85.2454C82.7864 184.838 66.393 198.772 42.6227 198.772C17.6228 198.772 0 181.969 0 158.199C0 134.428 17.6228 117.625 42.6227 117.625Z" fill="white"/>
<path d="M93.8477 196.728V119.27H108.602V183.613H148.765V196.728H93.8477Z" fill="white"/>
<path d="M152.869 119.27H168.033V166.4C168.033 179.515 175.82 185.663 189.754 185.663C203.279 185.663 211.475 179.925 211.475 166.4V119.27H226.229V165.991C226.229 187.712 211.885 198.367 189.754 198.367C167.213 198.367 152.869 187.302 152.869 165.991V119.27Z" fill="white"/>
<path d="M249.183 165.571C250.413 179.096 259.019 185.243 275.003 185.243C289.347 185.243 295.495 181.965 295.495 174.998C295.495 170.08 293.036 167.211 284.839 165.981L259.019 161.473C244.265 159.014 236.069 151.637 236.069 140.162C236.069 125.817 249.593 117.211 270.905 117.211C293.855 117.211 307.79 128.686 309.429 148.358H294.265C293.036 136.473 285.249 130.326 270.905 130.326C257.38 130.326 251.232 134.014 251.232 140.162C251.642 145.08 254.101 147.129 261.888 148.768L287.708 153.276C302.871 156.145 310.658 163.112 310.658 174.998C310.658 189.752 297.544 198.358 275.003 198.358C250.413 198.358 235.659 186.473 234.02 165.571H249.183Z" fill="white"/>
<path d="M311.881 132.384V119.27H378.684V132.384H352.864V196.728H337.7V132.384H311.881Z" fill="white"/>
<path d="M385.65 196.728V119.27H449.175V132.384H400.814V150.417H447.945V163.532H400.814V183.613H449.584V196.728H385.65Z" fill="white"/>
<path d="M473.768 150.827H506.145C513.522 150.827 516.8 148.368 516.8 141.401C516.8 134.843 513.522 131.974 506.554 131.974H473.768V150.827ZM459.014 196.728V119.27H508.194C523.358 119.27 532.374 126.647 532.374 139.761C532.374 150.007 526.226 155.335 518.44 157.384V158.614C524.587 160.663 526.226 163.532 527.866 171.318L533.194 196.728H518.03L513.931 173.777C512.292 165.991 509.833 163.532 500.407 163.532H474.177V196.728H459.014Z" fill="white"/>
<path d="M552.049 165.571C553.278 179.096 561.885 185.243 577.868 185.243C592.212 185.243 598.36 181.965 598.36 174.998C598.36 170.08 595.901 167.211 587.704 165.981L561.885 161.473C547.131 159.014 538.934 151.637 538.934 140.162C538.934 125.817 552.458 117.211 573.77 117.211C596.72 117.211 610.655 128.686 612.294 148.358H597.13C595.901 136.473 588.114 130.326 573.77 130.326C560.245 130.326 554.098 134.014 554.098 140.162C554.508 145.08 556.967 147.129 564.753 148.768L590.573 153.276C605.737 156.145 613.524 163.112 613.524 174.998C613.524 189.752 600.409 198.358 577.868 198.358C553.278 198.358 538.524 186.473 536.885 165.571H552.049Z" fill="white"/>
<path d="M111.478 302.465H2.05273V287.301H95.4948V242.629H111.478C111.478 243.858 111.478 283.612 111.478 285.252C111.478 286.481 111.478 300.825 111.478 302.465Z" fill="white"/>
<path d="M420.901 288.114C415.573 290.163 409.016 290.983 402.868 288.934C400.819 288.114 399.18 286.885 398.36 285.245C397.131 283.606 396.721 281.557 396.721 279.098C396.721 277.458 397.131 275.819 397.95 273.77C398.77 271.721 399.999 270.081 402.049 268.032C404.098 266.393 406.557 264.344 409.835 263.114C411.885 262.295 413.524 261.475 415.573 261.475L422.95 283.196C423.36 284.426 423.77 285.245 424.18 286.475C423.36 287.294 422.13 287.704 420.901 288.114ZM348.36 278.278C346.721 280.737 344.262 282.786 341.393 284.425C340.164 285.245 338.524 286.065 337.295 286.884L332.787 274.999C331.557 271.721 330.328 268.852 329.508 266.803C328.688 264.344 327.459 262.294 326.639 260.655C326.229 260.245 326.229 259.836 325.82 259.426L327.869 258.606C330.738 257.376 333.606 256.967 337.295 256.967C341.803 256.967 345.082 258.196 347.131 260.655C349.18 263.114 350.41 265.983 350.41 269.672C350.819 272.95 350 275.819 348.36 278.278ZM615.572 257.377H610.654H599.179V275.409C599.179 278.688 599.179 284.425 598.769 286.884H534.015C536.884 282.376 538.523 276.639 538.523 270.901C538.523 256.147 528.277 247.54 510.655 247.54H474.999V262.294H509.425C517.212 262.294 520.9 265.573 520.9 272.95C520.9 280.327 517.212 286.884 508.605 286.884H449.18C445.901 286.884 443.032 286.065 441.393 284.835C439.753 283.196 437.704 280.327 436.885 276.229L427.458 245.082H422.95C418.032 245.082 412.704 245.901 408.196 247.131C403.278 248.77 398.77 250.819 394.672 253.688C390.573 256.557 387.295 260.245 384.836 264.344C382.377 268.852 381.147 273.77 381.147 279.098C381.147 281.557 381.557 284.016 381.967 286.065H359.836C361.885 283.196 363.934 280.327 365.164 277.049C366.803 273.36 367.213 270.081 367.213 266.393C367.213 261.475 365.983 257.376 363.934 253.688C361.475 249.59 358.196 246.721 354.098 244.262C347.131 240.573 337.295 240.163 327.459 242.622C323.77 243.852 319.672 244.672 315.984 246.721C312.705 248.36 310.246 250.409 307.377 252.458L304.918 254.098L309.016 260.655C310.246 262.704 311.065 264.344 312.295 266.803C313.524 268.852 314.344 271.311 315.164 273.36C315.984 275.409 316.803 277.048 317.213 278.278L320.492 286.065H290.984H137.296V224.59H121.312V301.229H335.656H372.95L394.672 301.639C396.311 302.458 398.36 303.278 400.409 303.688C402.868 304.507 405.327 304.507 407.786 304.507C411.475 304.507 415.573 304.097 419.671 302.868C423.77 301.638 427.868 299.999 431.966 297.54C433.196 298.36 434.016 298.77 435.245 299.179C437.294 300.409 439.753 300.819 443.032 301.229H448.36C457.376 301.229 475.409 301.229 475.409 301.229H615.572V289.344V286.065V257.377Z" fill="white"/>
<path d="M443.443 302.055C444.673 302.055 445.902 302.465 447.542 302.465H448.771L449.181 302.055H443.443Z" fill="white"/>
<path d="M589.747 244.27C589.747 246.729 588.927 248.778 587.288 250.418C585.649 252.057 583.6 252.877 581.141 252.877C578.682 252.877 576.632 252.057 574.993 250.418C573.764 249.188 573.354 248.369 572.944 246.729C572.534 247.959 571.714 249.188 570.895 250.418C567.616 253.696 561.878 253.696 558.6 250.418C556.96 248.778 556.141 246.729 556.141 244.27C556.141 241.811 556.96 239.352 558.6 237.713C561.878 234.434 567.616 234.434 570.895 237.713C572.124 238.942 572.534 239.762 572.944 241.401C573.354 240.172 574.173 238.942 574.993 237.713C578.272 234.434 584.009 234.434 587.288 237.713C588.927 239.352 589.747 241.811 589.747 244.27Z" fill="white"/>
<path d="M504.502 315.989C504.502 318.448 503.682 320.497 502.043 322.546C500.404 324.186 498.355 325.005 495.896 325.005C493.437 325.005 491.387 324.186 489.748 322.546C488.109 320.907 487.289 318.448 487.289 315.989C487.289 313.53 488.109 311.071 489.748 309.432C493.027 306.153 498.764 306.153 502.043 309.432C503.273 311.481 504.502 313.53 504.502 315.989Z" fill="white"/>
<path d="M78.6897 242.212C78.6897 244.671 77.8701 246.72 76.2307 248.769C74.5914 250.408 72.1324 251.228 69.6734 251.228C67.2144 251.228 65.1652 250.408 63.5259 248.769C62.2964 247.54 61.8866 246.72 61.4767 245.081C61.0669 246.31 60.2472 247.54 59.4276 248.769C57.7882 250.408 55.3292 251.228 53.2801 251.228C50.8211 251.228 48.7719 250.408 46.7227 248.769C45.0834 247.13 44.2637 245.081 44.2637 242.212C44.2637 239.753 45.0834 237.703 46.7227 235.654C50.0014 232.376 56.1489 232.376 59.4276 235.654C60.6571 236.884 61.0669 237.703 61.4767 239.343C61.8866 238.113 62.7062 236.884 63.5259 235.654C66.8046 232.376 72.952 232.376 76.2307 235.654C77.8701 237.703 78.6897 239.753 78.6897 242.212Z" fill="white"/>
<path d="M865.162 191.393H865.572L867.621 189.343V188.934L865.162 191.393Z" fill="white"/>
<path d="M1016.8 270.08L968.85 222.13L1016.8 174.179L1064.75 222.13L1016.8 270.08ZM895.08 256.146L861.064 222.13L895.08 188.114L929.096 222.13L895.08 256.146ZM942.211 343.851L894.26 391.801L846.31 343.851L894.26 295.9L942.211 343.851ZM846.72 99.5896L894.67 51.639L942.621 99.5896L894.67 147.54L846.72 99.5896ZM772.13 270.08L724.179 222.13L772.13 174.179L820.081 222.13L772.13 270.08ZM1033.6 139.753L1016.8 156.556L1013.93 159.425L1008.19 165.163L1005.33 168.032L953.276 220.081L896.719 163.524L952.047 108.196L959.014 101.229L961.063 99.1797L977.866 82.3765L895.49 0L815.572 79.9176L813.113 82.3765L893.851 163.114L868.441 188.523L866.392 190.573L837.293 219.671L784.835 166.802L782.376 164.343L775.818 157.786L756.556 138.524L751.228 143.852L674.18 220.9L755.327 302.047L755.737 301.638L756.966 302.867L773.359 286.474L779.917 279.916L782.376 277.457L837.703 222.13L866.802 251.228L868.851 253.277L893.851 278.277L841.392 330.736L838.523 333.605L832.376 339.752L829.507 342.621L813.113 359.014L812.703 359.424L820.081 366.801L895.49 442.211L971.309 366.391L977.866 359.834L961.063 343.031L952.047 334.014L899.998 281.966L896.719 278.687L925.818 249.589L927.867 247.54L952.867 222.54L1008.19 277.867L1010.65 280.326L1017.21 286.884L1033.6 303.277L1115.98 220.9L1033.6 139.753Z" fill="white"/>
<path d="M754.5 302.868L754.091 303.278L755.32 304.507L755.73 304.097L754.5 302.868Z" fill="white"/>
<path d="M772.129 288.104L778.686 281.547L772.129 288.104Z" fill="white"/>
<path d="M1115.81 221.792L1033.22 304.383L1033.51 304.673L1116.1 222.081L1115.81 221.792Z" fill="white"/>
<path d="M1010.25 281.547L1016.39 288.104H1016.8L1010.25 281.547Z" fill="white"/>
<path d="M998.77 122.95L943.032 186.884L936.885 180.736L934.836 178.277L929.508 172.949L993.852 118.441L998.77 122.95Z" fill="white"/>
<path d="M997.95 321.309L993.032 326.227L929.508 270.899L937.295 263.112L943.032 256.965L997.95 321.309Z" fill="white"/>
<path d="M859.423 172.956L845.898 186.891L790.98 122.547L795.489 117.629L859.423 172.956Z" fill="white"/>
<path d="M859.422 270.903L795.079 325.821L790.57 321.313L845.898 257.379L859.422 270.903Z" fill="white"/>
<path d="M781.967 89.3438H761.885V109.426H781.967V89.3438Z" fill="white"/>
<path d="M783.195 334.016H763.113V354.098H783.195V334.016Z" fill="white"/>
<path d="M1026.64 334.016H1006.55V354.098H1026.64V334.016Z" fill="white"/>
<path d="M1027.45 89.3438H1007.37V109.426H1027.45V89.3438Z" fill="white"/>
<path d="M781.145 109.429H781.964V108.609L781.145 109.429Z" fill="white"/>
<path d="M754.092 303.679L755.321 304.909L755.731 304.499L754.502 302.859L754.092 303.679Z" fill="white"/>
<path d="M781.145 334.016L783.194 336.065V334.016H781.145Z" fill="white"/>
<path d="M1007.37 109.429H1008.19L1007.37 108.609V109.429Z" fill="white"/>
<path d="M977.043 360.66L970.076 367.627L977.043 360.66Z" fill="white"/>
<path d="M1006.55 334.016V335.655L1008.19 334.016H1006.55Z" fill="white"/>
<path d="M1115.81 221.792L1033.22 304.383L1033.51 304.673L1116.1 222.081L1115.81 221.792Z" fill="white"/>
<path d="M865.162 191.393H865.572L867.621 189.343V188.934L865.162 191.393Z" fill="white"/>
</svg>
