<?xml version="1.0" encoding="UTF-8"?>
<svg id="Layer_1" xmlns="http://www.w3.org/2000/svg" viewBox="0 0 1246.88 347">
  <defs>
    <style>
      .cls-1 {
        fill: #00a488;
      }

      .cls-2 {
        fill: #005257;
      }

      .cls-3 {
        fill: #00848d;
      }

      .cls-4 {
        fill: #002f56;
      }

      .cls-5 {
        fill: #00a688;
      }

      .cls-6 {
        fill: #75cec8;
      }
    </style>
  </defs>
  <g>
    <g>
      <path class="cls-4" d="M1084.16,272.42c-2.9,1.94-6.14,2.55-9.48,2.57-9.08.06-18.16.05-27.24,0-2.87-.01-5.57-.71-7.89-2.58-3.14,2.08-6.66,2.6-10.28,2.6-20.88.02-41.75,0-62.63,0-5.35-4.37-10.7-8.74-16.07-13.13.22-6.87-.6-13.78.72-20.55,1.81-7.94,6.87-12.52,14.75-14.03,2.24-.43,4.56-.65,6.84-.66,10.75-.07,30.48-.03,30.48-.03h0c-.01,11.65.03,21.92.04,40.58h26.32v-34.31h15.35v9.08s.01,13.51.02,20.26c-.05,3.68.98,5.12,4.8,5.03,8.16-.03,16.31.07,24.47-.03v-34.36h15.31c0,10.19.01,15.46.05,29.34-.04,3.84,1.02,5.14,4.94,5.05,9.09-.02,18.17.06,27.26-.03-2.31-3.57-3.68-7.41-3.79-11.65-.2-4.42-.19-13.28-.19-13.28v-7.92h14.72v-19.03c8.17-.15,16.33-.1,24.5,0,18.57.29,31.62,12.12,30.82,31.17-4.84,4.31-9.57,8.52-14.35,12.78,2.5,4.06,5.74,8.4,11.02,7.98,6.21-.11,12.4-.04,18.62,0v-65.7h15.47c0,10.81.01,32.37.01,57.65.31,10.92-5.91,15.92-16.44,15.78-7.9.05-15.81-.06-23.71.05-6.16.16-11.16-2.37-15.52-6.49-2.37,2.13-4.77,4.28-7.21,6.46h-62.72c-3.23.04-6.4-.56-9.01-2.6h.02ZM987.95,234.48c-4.3-.23-8.75-.1-13.08.07-6.17.23-8.84,5.8-8.82,11.4-.04,5.85-.08,11.7,0,17.54,1.56,1.27,3.1,2.53,4.54,3.71h17.36v-32.72h0ZM1157.77,261.79c-3.79-6.64-7.52-13.18-11.24-19.69h-12.96c-.07,4.53-.03,9.05,0,13.58-.03,6.03,2.86,11.25,9.38,11.47,2.86.17,5.73.03,8.73.03,1.99-1.75,4.07-3.6,6.1-5.38h-.01ZM1159.36,234.37c3.32,5.73,6.63,11.45,9.98,17.22,1.09-.94,2.11-1.83,3.06-2.65.04-5.88.47-11.79-2.29-17.14-2.35-4.75-5.97-8.02-11.38-8.58-3.46-.27-7.1-.29-10.53-.09v11.24h11.16Z"/>
      <path class="cls-4" d="M1246.88,274.98h-15.34v-73.41h15.34v73.41Z"/>
      <path class="cls-4" d="M1049.16,206.38v9.88h-7.7v-5.68c-3.29-.86-5.51.77-5.57,4.02-.03,1.86,0,3.72,0,5.61.78.72,1.56,1.44,2.39,2.19h13.13v5.13h-26.03v-5.13h5.43c-1.26-1.13-2.34-2.09-3.27-2.92-.19-5.79-.66-11.62,6.41-12.88,3.71-.57,14.74-.16,15.24-.27v.05h-.03Z"/>
      <path class="cls-4" d="M989.53,199.65c2.98,2.98,6,6,8.95,8.95-2.97,2.97-6,6-8.97,8.97-2.95-2.86-5.99-5.81-9.06-8.78-2.94,2.95-5.96,5.98-9.03,9.05-3.03-3.1-5.96-6.1-8.97-9.18,2.98-3.05,5.93-6.07,8.89-9.1,3.04,3.05,6.05,6.07,9,9.02,3.12-3.03,6.18-5.99,9.19-8.91v-.02Z"/>
      <path class="cls-4" d="M1061.73,292.17c3.13-3.02,6.17-5.96,9.14-8.82,2.85,2.85,5.87,5.87,8.82,8.82-2.9,2.9-5.92,5.92-8.82,8.81-2.98-2.88-6.03-5.82-9.14-8.82h0Z"/>
      <path class="cls-4" d="M1097.91,292.21c-2.9,2.9-5.92,5.9-8.84,8.82-3-2.9-6.06-5.85-9.16-8.85,3.13-3.03,6.17-5.98,9.13-8.85,2.86,2.86,5.88,5.88,8.87,8.88Z"/>
    </g>
    <g>
      <path class="cls-4" d="M769.79,201.55h15.47v65.67h30.99c-4.1-3.89-6.71-8.54-7.61-14.09-.77-4.58-1.22-9.21-1.74-13.83,3.16-4.28,6.3-8.55,9.45-12.81,7.87.03,15.66-.1,23.5.17,5.29.22,10.41,1.32,15.03,4.09,9.94,5.43,10.08,17.77,5.11,26.79-2.08,3.84-4.91,6.99-8.37,9.66h32.15v-65.62h15.46c0,11.47.02,32.04.02,57.64.3,7.57-3.09,14-10.97,15.29-39.41,1.39-79,.08-118.47.52,0-29.68-.02-63.36-.02-73.47h0ZM821.85,234.33c.27,3.51.7,6.98,1.12,10.47.41,3.11.75,6.25,1.44,9.3,1.27,5.73,4.85,11.92,11.03,13.25,7.98-4.88,12.84-13.94,12.21-23.31-.2-3.04-1.36-5.67-3.84-7.58-2.14-1.64-4.61-2.17-7.24-2.17-4.91.04-9.8-.07-14.71.04h-.01Z"/>
      <path class="cls-4" d="M718.8,275.02c-2.7-2.72-5.43-5.47-8.19-8.26-2.99,4.62-7.67,7.28-13.04,7.92-19.89.88-39.87.08-59.79.34-5.36-4.38-10.71-8.75-16.15-13.2.09-5.68.02-11.4.31-17.1.21-4.15,1.52-8.04,4.23-11.33,4.31-5.35,11.28-6.64,17.79-6.75,10.77-.07,30.56-.03,30.56-.03h0c0,11.01.02,22.14.03,40.65h10.34c4.25-.1,9.24.97,11.21-3.84.79-1.81,1.34-3.75,1.73-5.69,1.18-5.81,2.11-11.66,3.36-17.45.81-3.76,2.61-7.07,5.7-9.52,4.29-3.43,9.92-3.79,15.19-3.93,11.51-.05,33.08-.02,33.08-.02-.08,10.4.17,16.31-.06,29.67-.14,4.68-1.5,9-4.84,12.47-7.89,8.1-21.1,5.68-31.45,6.07h-.01ZM739.7,234.69c-5.23,0-10.37-.1-15.5.03-6.06.13-7.4,4.64-8.21,9.83-.81,4.26-1.59,8.53-2.31,12.46,3.42,3.54,6.69,6.91,9.8,10.13,5.78.04,12.81,1.08,15.15-5.54.58-1.56.99-3.28,1.02-4.94.09-7.32.15-14.66.05-21.97h0ZM659.05,267.22v-32.96c-4.53.1-9.02.05-13.47.36-4.89.15-7.96,4.7-8.23,9.29-.13,6.5-.06,13.01-.06,19.67,1.41,1.15,2.97,2.43,4.45,3.64h17.31,0Z"/>
      <path class="cls-4" d="M912.04,201.53h15.35c0,12.46.03,42.56.03,73.42h-15.37v-73.42h-.01Z"/>
      <path class="cls-4" d="M642.5,199.51c3.04,3.07,6.04,6.1,8.99,9.07,3.12-3.03,6.18-5.99,9.21-8.94,2.97,2.97,5.98,5.99,8.95,8.96-2.99,2.99-6.02,6.02-8.99,8.99-2.98-2.9-6.02-5.85-9.1-8.85-2.95,2.96-5.98,5.99-9.04,9.05-3-3.07-5.94-6.08-8.94-9.15,2.98-3.05,5.93-6.07,8.92-9.14h0Z"/>
    </g>
    <g>
      <path class="cls-4" d="M464.05,226.48c7.82.03,15.6-.06,23.41.17,5.32.17,10.46,1.31,15.11,4.08,10,5.46,10.08,17.9,5.04,26.93-2.07,3.78-4.88,6.88-8.3,9.51h32.14v-65.62h15.47v9.24s0,31.83.03,47.75c.1,2.98-.37,5.84-1.23,8.66h24.82v-65.66h15.41c.11,14.54-.05,30.83.05,57.7,0,2.2-.14,4.37-.78,6.49-1.54,5.06-5.13,7.79-10.16,8.76-76.5,1.45-153.19.05-229.76.52,0-29.71-.02-63.27-.02-73.47h15.45v65.66h31.56c-3.68-3.76-7.41-7.58-11.17-11.44.12-4.61-.35-9.27.74-13.86,1.82-7.71,6.81-12.13,14.44-13.62,2.37-.46,4.83-.67,7.24-.69,10.45-.07,29.73-.03,29.73-.03h0c-.01,10.18.02,15.79.05,29.09,0,3.52.14,7.06-1.24,10.52h31.83c-4.08-3.88-6.68-8.52-7.57-14.05-.78-4.58-1.21-9.21-1.74-13.83,3.16-4.28,6.3-8.54,9.45-12.81h0ZM483.13,267.35c7.97-4.85,12.84-13.93,12.22-23.28-.2-3.11-1.39-5.78-3.95-7.69-2.1-1.57-4.53-2.08-7.11-2.08-4.93.05-9.85-.09-14.77.05.65,5.87,1.22,11.66,2.08,17.49,1.03,6.49,4.53,13.93,11.53,15.51ZM396.68,258.56c2.95,2.95,5.79,5.79,8.62,8.63,2.93,0,5.91.06,8.88-.02,1.79-.05,2.92-1.16,3.36-2.86.23-.91.33-1.89.34-2.83,0-8.73.08-17.47-.03-26.2-3.98-.14-7.97-.07-11.95.05-4.8.2-8.01,2.98-8.79,7.73-.66,5.04-.38,10.52-.43,15.52v-.02Z"/>
      <path class="cls-4" d="M300.14,295.03c-.83-1.9-1.63-3.74-2.51-5.76,10.57,1.13,17.43-8.03,17.37-17.88.08-15.21.03-29.47.04-44.72h15.4c-.02,13.92.13,29.6,0,44.03.36,17.34-14.06,26.66-30.3,24.32h0Z"/>
      <path class="cls-4" d="M412.16,208.36c-3.04,2.95-6.07,5.89-9.03,8.77-2.98-2.88-6.01-5.81-9.07-8.76,3.13-3.02,6.19-5.97,9.39-9.06,2.7,2.8,5.65,5.86,8.54,8.85,3.18-3.09,6.17-6,9.21-8.94,2.92,3.02,5.9,6.1,8.77,9.08-2.79,2.88-5.76,5.95-8.66,8.94-3.11-3.01-6.16-5.97-9.16-8.87h.01Z"/>
    </g>
    <path class="cls-4" d="M323.17,345.45l-7.6-11.37h-9.51v11.37h-6.37v-34.3h14.99c10.44,0,14.8,3.48,14.8,11.17,0,5.68-2.3,9.21-7.15,10.78l8.33,12.35h-7.5.01ZM306.07,328.6h8.97c5.63,0,7.84-1.67,7.84-5.93s-2.21-5.93-7.84-5.93h-8.97v11.86Z"/>
    <path class="cls-4" d="M363.54,316.84h-20.38v8.53h18.86v5.44h-18.86v8.97h20.78v5.68h-27.14v-34.3h26.75v5.68h-.01Z"/>
    <path class="cls-4" d="M395.18,337.91h-16.71l-3.09,7.55h-7.2l14.45-34.3h8.38l14.5,34.3h-7.25l-3.09-7.55h0ZM392.98,332.62l-6.17-15.04-6.17,15.04h12.35,0Z"/>
    <path class="cls-4" d="M418.1,339.72h18.13v5.73h-24.5v-34.3h6.37v28.57h0Z"/>
    <path class="cls-4" d="M481.44,316.84h-20.38v8.53h18.86v5.44h-18.86v8.97h20.78v5.68h-27.14v-34.3h26.75v5.68h-.01Z"/>
    <path class="cls-4" d="M512.6,319.44c-3.68-1.96-8.18-3.23-11.66-3.23-3.67,0-6.17,1.37-6.17,4.16,0,1.81.98,2.6,6.42,4.07,7.54,2.09,15.17,3.47,15.04,10.93.17,13.59-21.5,12.26-29.84,6.03l2.94-4.8c4.76,3.12,19.81,7.1,20.19-.88,0-2.35-1.32-3.04-6.22-4.26-7.93-1.99-15.55-3.34-15.43-10.63.26-13.1,19.65-11.44,27.54-6.47l-2.79,5.1-.02-.02Z"/>
    <path class="cls-4" d="M548.6,316.74h-10.98v28.71h-6.37v-28.71h-10.98v-5.59h28.32v5.59h0Z"/>
    <path class="cls-4" d="M575.35,337.91h-16.71l-3.09,7.55h-7.2l14.45-34.3h8.38l14.5,34.3h-7.25l-3.09-7.55h.01ZM573.14,332.62l-6.17-15.04-6.17,15.04h12.35-.01Z"/>
    <path class="cls-4" d="M613.85,316.74h-10.98v28.71h-6.37v-28.71h-10.98v-5.59h28.32v5.59h0Z"/>
    <path class="cls-4" d="M646.72,316.84h-20.38v8.53h18.86v5.44h-18.86v8.97h20.78v5.68h-27.15v-34.3h26.75v5.68Z"/>
    <path class="cls-4" d="M692.32,319.83c-7.47-6.84-20.72-2.47-20.68,8.48.11,10.78,12.22,14.79,20.19,9.11v-5.83h-8.28v-5.14h14.31v14.26c-3.92,3.33-9.16,5.24-14.65,5.24-9.85.2-18.52-8.13-18.28-17.64-.2-16.24,20.44-23.01,31.55-12.79l-4.16,4.31h0Z"/>
    <path class="cls-4" d="M733.47,316.84h-20.38v8.53h18.86v5.44h-18.86v8.97h20.78v5.68h-27.15v-34.3h26.75v5.68Z"/>
    <path class="cls-4" d="M771.83,311.16v34.3h-6.71l-18.13-24.65v24.65h-6.27v-34.3h6.71l18.18,24.65v-24.65h6.22Z"/>
    <path class="cls-4" d="M807.78,316.84h-20.38v8.53h18.86v5.44h-18.86v8.97h20.78v5.68h-27.15v-34.3h26.75v5.68Z"/>
    <path class="cls-4" d="M838.49,345.45l-7.59-11.37h-9.51v11.37h-6.37v-34.3h14.99c10.44,0,14.8,3.48,14.8,11.17,0,5.68-2.3,9.21-7.15,10.78l8.33,12.35h-7.5,0ZM821.39,328.6h8.97c5.64,0,7.84-1.67,7.84-5.93s-2.2-5.93-7.84-5.93h-8.97v11.86Z"/>
    <path class="cls-4" d="M876.85,337.91h-16.71l-3.09,7.55h-7.2l14.45-34.3h8.38l14.5,34.3h-7.25l-3.09-7.55h.01ZM874.64,332.62l-6.17-15.04-6.17,15.04h12.35-.01Z"/>
    <path class="cls-4" d="M899.77,339.72h18.13v5.73h-24.5v-34.3h6.37v28.57h0Z"/>
    <path class="cls-4" d="M960.37,337.91h-16.71l-3.09,7.55h-7.2l14.45-34.3h8.38l14.5,34.3h-7.25l-3.09-7.55h.01ZM958.16,332.62l-6.17-15.04-6.17,15.04h12.35-.01Z"/>
    <path class="cls-4" d="M1006.17,329.97c0,10.24-5.49,15.97-15.29,15.97s-15.34-5.78-15.34-15.97v-18.82h6.37v18.82c0,6.47,3.28,10.09,8.97,10.09s8.92-3.63,8.92-10.09v-18.82h6.37v18.82h0Z"/>
    <path class="cls-4" d="M1040.7,316.74h-10.98v28.71h-6.37v-28.71h-10.98v-5.59h28.32v5.59h.01Z"/>
    <path class="cls-4" d="M1077.93,345.45h-6.37v-14.41h-18.37v14.41h-6.37v-34.3h6.37v14.16h18.37v-14.16h6.37v34.3Z"/>
    <path class="cls-4" d="M1104.14,345.94c-9.85.2-18.52-8.13-18.28-17.64-.25-9.51,8.43-17.84,18.28-17.64,9.8-.2,18.37,8.13,18.18,17.64.2,9.51-8.38,17.83-18.18,17.64ZM1104.14,339.97c6.47,0,11.51-5.24,11.51-11.66-.51-15.49-22.58-15.44-23.08,0,0,6.42,5.05,11.66,11.56,11.66h0Z"/>
    <path class="cls-4" d="M1153.71,345.45l-7.59-11.37h-9.51v11.37h-6.37v-34.3h14.99c10.44,0,14.8,3.48,14.8,11.17,0,5.68-2.3,9.21-7.15,10.78l8.33,12.35h-7.5ZM1136.61,328.6h8.97c5.64,0,7.84-1.67,7.84-5.93s-2.2-5.93-7.84-5.93h-8.97v11.86Z"/>
    <path class="cls-4" d="M1173.69,345.45h-6.37v-34.3h6.37v34.3Z"/>
    <path class="cls-4" d="M1208.23,316.74h-10.98v28.71h-6.37v-28.71h-10.98v-5.59h28.32v5.59h.01Z"/>
    <path class="cls-4" d="M1246.88,311.16l-14.21,22.15v12.15h-6.42v-12.1l-14.21-22.2h7.64l9.8,15.48,9.85-15.48h7.55,0Z"/>
  </g>
  <g>
    <polygon class="cls-4" points="522.3 107.05 522.3 83.67 470.3 83.67 470.3 43.19 542.16 43.19 542.16 21.96 440.98 21.96 440.98 172.48 557.65 172.48 557.65 151.26 470.3 151.26 470.3 107.05 522.3 107.05"/>
    <path class="cls-4" d="M778.78,172.3h31.34V22.02h-71.58c-18.21,37.38-54.9,113.2-72.74,150.46h31.84l33.86-69.73,47.28,69.54h0ZM760.34,43.03h21.09v86.94l-36.05-53.51,14.96-33.43h0Z"/>
    <path class="cls-4" d="M584.82,25.34c-31.56,11.19-47.47,40.41-47.04,73.37-.42,31.42,16.23,58.38,46.07,68.87,9.88,3.64,21.32,5.49,33.99,5.49,9.68-.03,35.21-.36,47.99-.55v-90.84h-54.52v23.5h29.25v43.74c-5.54,1.98-4.99,2.06-14.45,1.92-34.74,1.05-59.91-19.05-59.02-55.79-.18-15.76,5.78-30.69,15.64-40.36,18.6-17.78,51.21-16.75,73.98-7.7l3.54-19.7c-18.23-9.33-54.59-10.31-75.42-1.95h0Z"/>
    <path class="cls-4" d="M362.69,118.28l42.94,54.2h35.35l-44.81-54.18,26.44-29.4v-33.6c0-18.38-14.96-33.34-33.34-33.34h-80.15v150.52h29.31v-54.95h23.66l.58.74h.02ZM337.57,94.05l.53-50.99h35.48c13.42,0,23.13,10.34,23.13,17.31l-.53,18.81-13.2,14.87s-45.41,0-45.41,0Z"/>
  </g>
  <g>
    <polygon class="cls-2" points="15.35 226.12 136.23 347 136.23 298.82 63.1 226.12 15.35 226.12"/>
    <polygon class="cls-2" points="148.26 298.82 148.26 347 269.14 226.12 221.4 226.12 148.26 298.82"/>
    <polygon class="cls-6" points="136.23 98.87 136.23 96.32 136.23 65.39 136.23 65.31 136.23 48.57 87.65 .29 87.65 .39 39.91 0 57.09 17.19 70.97 31.06 81.11 41.24 94.98 55.08 105.16 65.26 105.22 65.31 33.97 65.31 34.05 65.39 0 98.87 136.23 98.87"/>
    <polygon class="cls-5" points="57.1 189.29 70.98 175.41 81.15 165.27 94.99 151.4 105.17 141.22 119.05 127.35 136.23 110.16 88.48 110.16 40.2 158.73 40.31 158.73 39.92 206.48 57.1 189.29"/>
    <polygon class="cls-6" points="250.45 65.39 250.52 65.31 182.28 65.31 179.27 65.32 179.33 65.26 189.51 55.08 203.38 41.24 213.52 31.06 227.4 17.19 244.58 0 196.84 .39 196.84 .29 148.26 48.57 148.26 65.39 148.26 96.32 148.26 98.87 284.5 98.87 250.45 65.39"/>
    <polygon class="cls-1" points="178.65 141.22 188.82 151.4 202.66 165.27 212.84 175.41 226.72 189.29 243.9 206.48 243.51 158.73 243.62 158.73 195.33 110.16 147.59 110.16 164.77 127.35 178.65 141.22"/>
    <polygon class="cls-3" points="158.72 141.36 125.61 141.36 106.2 161.17 178.3 161.17 158.72 141.36"/>
    <polygon class="cls-3" points="158.72 172.88 125.61 172.88 106.2 192.69 178.3 192.69 158.72 172.88"/>
    <polygon class="cls-3" points="158.72 204.17 125.61 204.17 106.2 223.99 178.3 223.99 158.72 204.17"/>
    <polygon class="cls-3" points="106.2 255.4 178.3 255.4 158.72 235.59 125.61 235.59 106.2 255.4"/>
  </g>
</svg>