<svg width="78" height="78" viewBox="0 0 78 78" fill="none" xmlns="http://www.w3.org/2000/svg">
<path d="M33.634 33.7229H33.7058L34.065 33.3638V33.292L33.634 33.7229Z" fill="#EBDDCC"/>
<path d="M60.2093 47.5121L51.8059 39.1088L60.2093 30.7054L68.6126 39.1088L60.2093 47.5121ZM38.8777 45.0701L32.9163 39.1088L38.8777 33.1474L44.839 39.1088L38.8777 45.0701ZM47.1374 60.4404L38.734 68.8437L30.3307 60.4404L38.734 52.037L47.1374 60.4404ZM30.4025 17.6335L38.8059 9.23018L47.2092 17.6335L38.8059 26.0369L30.4025 17.6335ZM17.3306 47.5121L8.92726 39.1088L17.3306 30.7054L25.734 39.1088L17.3306 47.5121ZM63.154 24.6722L60.2093 27.617L59.7065 28.1198L58.701 29.1253L58.1982 29.6281L49.0766 38.7497L39.165 28.838L48.8612 19.1418L50.0822 17.9208L50.4413 17.5617L53.3861 14.6169L38.9495 0.18042L24.9439 14.186L24.513 14.6169L38.6622 28.7662L34.2092 33.2192L33.85 33.5784L28.7506 38.6778L19.5572 29.4126L19.1262 28.9817L17.977 27.8325L14.6013 24.4568L13.6676 25.3905L0.164795 38.8933L14.3858 53.1144L14.4577 53.0425L14.6731 53.258L17.5461 50.3851L18.6953 49.2359L19.1262 48.805L28.8224 39.1088L33.9219 44.2083L34.281 44.5674L38.6622 48.9486L29.4688 58.142L28.966 58.6448L27.8887 59.7222L27.3859 60.2249L24.513 63.0978L24.4411 63.1697L25.734 64.4625L38.9495 77.678L52.2369 64.3907L53.3861 63.2415L50.4413 60.2967L48.8612 58.7166L39.7396 49.595L39.165 49.0204L44.2645 43.921L44.6236 43.5619L49.0048 39.1806L58.701 48.8768L59.1319 49.3077L60.2811 50.4569L63.154 53.3298L77.5906 38.8933L63.154 24.6722Z" fill="#EBDDCC"/>
<path d="M14.2425 53.2579L14.1706 53.3297L14.3861 53.5452L14.4579 53.4734L14.2425 53.2579Z" fill="#EBDDCC"/>
<path d="M17.3303 50.6714L18.4795 49.5222L17.3303 50.6714Z" fill="#EBDDCC"/>
<path d="M77.5613 39.0517L63.0872 53.5259L63.1379 53.5767L77.6121 39.1025L77.5613 39.0517Z" fill="#EBDDCC"/>
<path d="M59.0605 49.5222L60.1379 50.6714H60.2097L59.0605 49.5222Z" fill="#EBDDCC"/>
<path d="M57.0491 21.7276L47.2811 32.932L46.2037 31.8547L45.8446 31.4237L44.9109 30.49L56.1872 20.9375L57.0491 21.7276Z" fill="#EBDDCC"/>
<path d="M56.9054 56.4897L56.0435 57.3516L44.9109 47.6554L46.2755 46.2907L47.2811 45.2134L56.9054 56.4897Z" fill="#EBDDCC"/>
<path d="M32.629 30.4909L30.2589 32.9329L20.6345 21.6566L21.4246 20.7947L32.629 30.4909Z" fill="#EBDDCC"/>
<path d="M32.6288 47.6561L21.3526 57.2804L20.5625 56.4904L30.2587 45.2859L32.6288 47.6561Z" fill="#EBDDCC"/>
<path d="M19.0545 15.8374H15.5352V19.3568H19.0545V15.8374Z" fill="#EBDDCC"/>
<path d="M19.2699 58.7158H15.7505V62.2352H19.2699V58.7158Z" fill="#EBDDCC"/>
<path d="M61.9327 58.7158H58.4133V62.2352H61.9327V58.7158Z" fill="#EBDDCC"/>
<path d="M62.0762 15.8374H58.5569V19.3568H62.0762V15.8374Z" fill="#EBDDCC"/>
<path d="M18.9106 19.358H19.0543V19.2144L18.9106 19.358Z" fill="#EBDDCC"/>
<path d="M14.1702 53.4017L14.3856 53.6172L14.4575 53.5453L14.242 53.2581L14.1702 53.4017Z" fill="#EBDDCC"/>
<path d="M18.9106 58.7158L19.2698 59.0749V58.7158H18.9106Z" fill="#EBDDCC"/>
<path d="M58.5569 19.358H58.7005L58.5569 19.2144V19.358Z" fill="#EBDDCC"/>
<path d="M53.242 63.3855L52.021 64.6065L53.242 63.3855Z" fill="#EBDDCC"/>
<path d="M58.4133 58.7158V59.0031L58.7006 58.7158H58.4133Z" fill="#EBDDCC"/>
<path d="M77.5613 39.0498L63.0872 53.5239L63.1379 53.5747L77.6121 39.1006L77.5613 39.0498Z" fill="#EBDDCC"/>
<path d="M33.634 33.7229H33.7058L34.065 33.3638V33.292L33.634 33.7229Z" fill="#EBDDCC"/>
</svg>
